ISO-10303-21;
HEADER;
FILE_DESCRIPTION(('FreeCAD Model'),'2;1');
FILE_NAME('Open CASCADE Shape Model','2026-08-14T08:39:02',(''),(''),
  'Open CASCADE STEP processor 7.8','FreeCAD','Unknown');
FILE_SCHEMA(('AUTOMOTIVE_DESIGN { 1 0 10303 214 1 1 1 1 }'));
ENDSEC;
DATA;
#1 = APPLICATION_PROTOCOL_DEFINITION('international standard',
  'automotive_design',2000,#2);
#2 = APPLICATION_CONTEXT(
  'core data for automotive mechanical design processes');
#3 = SHAPE_DEFINITION_REPRESENTATION(#4,#10);
#4 = PRODUCT_DEFINITION_SHAPE('','',#5);
#5 = PRODUCT_DEFINITION('design','',#6,#9);
#6 = PRODUCT_DEFINITION_FORMATION('','',#7);
#7 = PRODUCT('mold bot Waves001','mold bot Waves001','',(#8));
#8 = PRODUCT_CONTEXT('',#2,'mechanical');
#9 = PRODUCT_DEFINITION_CONTEXT('part definition',#2,'design');
#10 = ADVANCED_BREP_SHAPE_REPRESENTATION('',(#11,#15),#1740);
#11 = AXIS2_PLACEMENT_3D('',#12,#13,#14);
#12 = CARTESIAN_POINT('',(0.,0.,0.));
#13 = DIRECTION('',(0.,0.,1.));
#14 = DIRECTION('',(1.,0.,-0.));
#15 = MANIFOLD_SOLID_BREP('',#16);
#16 = CLOSED_SHELL('',(#17,#193,#313,#389,#460,#611,#638,#784,#833,#840,
    #977,#1036,#1095,#1154,#1213,#1272,#1331,#1390,#1449,#1576,#1608,
    #1636,#1662,#1688,#1714));
#17 = ADVANCED_FACE('',(#18),#31,.F.);
#18 = FACE_BOUND('',#19,.F.);
#19 = EDGE_LOOP('',(#20,#58,#80,#192));
#20 = ORIENTED_EDGE('',*,*,#21,.T.);
#21 = EDGE_CURVE('',#22,#22,#24,.T.);
#22 = VERTEX_POINT('',#23);
#23 = CARTESIAN_POINT('',(9.840830674051,0.,0.5));
#24 = SURFACE_CURVE('',#25,(#30,#42),.PCURVE_S1.);
#25 = CIRCLE('',#26,9.840830674051);
#26 = AXIS2_PLACEMENT_3D('',#27,#28,#29);
#27 = CARTESIAN_POINT('',(0.,0.,0.5));
#28 = DIRECTION('',(0.,0.,1.));
#29 = DIRECTION('',(1.,0.,-0.));
#30 = PCURVE('',#31,#36);
#31 = CYLINDRICAL_SURFACE('',#32,9.840830674051);
#32 = AXIS2_PLACEMENT_3D('',#33,#34,#35);
#33 = CARTESIAN_POINT('',(0.,0.,2.));
#34 = DIRECTION('',(0.,0.,-1.));
#35 = DIRECTION('',(-1.,0.,0.));
#36 = DEFINITIONAL_REPRESENTATION('',(#37),#41);
#37 = LINE('',#38,#39);
#38 = CARTESIAN_POINT('',(9.424777960769,1.5));
#39 = VECTOR('',#40,1.);
#40 = DIRECTION('',(-1.,0.));
#41 = ( GEOMETRIC_REPRESENTATION_CONTEXT(2) 
PARAMETRIC_REPRESENTATION_CONTEXT() REPRESENTATION_CONTEXT('2D SPACE',''
  ) );
#42 = PCURVE('',#43,#48);
#43 = PLANE('',#44);
#44 = AXIS2_PLACEMENT_3D('',#45,#46,#47);
#45 = CARTESIAN_POINT('',(0.,0.,0.5));
#46 = DIRECTION('',(0.,0.,-1.));
#47 = DIRECTION('',(1.,0.,0.));
#48 = DEFINITIONAL_REPRESENTATION('',(#49),#57);
#49 = ( BOUNDED_CURVE() B_SPLINE_CURVE(2,(#50,#51,#52,#53,#54,#55,#56),
.UNSPECIFIED.,.T.,.F.) B_SPLINE_CURVE_WITH_KNOTS((1,2,2,2,2,1),(
    -2.094395102393,0.,2.094395102393,4.188790204786,6.28318530718,
8.377580409573),.UNSPECIFIED.) CURVE() GEOMETRIC_REPRESENTATION_ITEM() 
RATIONAL_B_SPLINE_CURVE((1.,0.5,1.,0.5,1.,0.5,1.)) REPRESENTATION_ITEM(
  '') );
#50 = CARTESIAN_POINT('',(9.840830674051,0.));
#51 = CARTESIAN_POINT('',(9.840830674051,-17.04481871613));
#52 = CARTESIAN_POINT('',(-4.920415337026,-8.52240935807));
#53 = CARTESIAN_POINT('',(-19.6816613481,-2.410308357186E-15));
#54 = CARTESIAN_POINT('',(-4.920415337026,8.52240935807));
#55 = CARTESIAN_POINT('',(9.840830674051,17.044818716139));
#56 = CARTESIAN_POINT('',(9.840830674051,0.));
#57 = ( GEOMETRIC_REPRESENTATION_CONTEXT(2) 
PARAMETRIC_REPRESENTATION_CONTEXT() REPRESENTATION_CONTEXT('2D SPACE',''
  ) );
#58 = ORIENTED_EDGE('',*,*,#59,.F.);
#59 = EDGE_CURVE('',#60,#22,#62,.T.);
#60 = VERTEX_POINT('',#61);
#61 = CARTESIAN_POINT('',(9.840939220524,-2.3E-14,1.849277796644));
#62 = SEAM_CURVE('',#63,(#66,#73),.PCURVE_S1.);
#63 = B_SPLINE_CURVE_WITH_KNOTS('',1,(#64,#65),.UNSPECIFIED.,.F.,.F.,(2,
    2),(0.150722203356,1.5),.PIECEWISE_BEZIER_KNOTS.);
#64 = CARTESIAN_POINT('',(9.840830674051,3.62E-15,1.849277796644));
#65 = CARTESIAN_POINT('',(9.840830674051,3.62E-15,0.5));
#66 = PCURVE('',#31,#67);
#67 = DEFINITIONAL_REPRESENTATION('',(#68),#72);
#68 = LINE('',#69,#70);
#69 = CARTESIAN_POINT('',(3.14159265359,0.));
#70 = VECTOR('',#71,1.);
#71 = DIRECTION('',(0.,1.));
#72 = ( GEOMETRIC_REPRESENTATION_CONTEXT(2) 
PARAMETRIC_REPRESENTATION_CONTEXT() REPRESENTATION_CONTEXT('2D SPACE',''
  ) );
#73 = PCURVE('',#31,#74);
#74 = DEFINITIONAL_REPRESENTATION('',(#75),#79);
#75 = LINE('',#76,#77);
#76 = CARTESIAN_POINT('',(9.424777960769,0.));
#77 = VECTOR('',#78,1.);
#78 = DIRECTION('',(0.,1.));
#79 = ( GEOMETRIC_REPRESENTATION_CONTEXT(2) 
PARAMETRIC_REPRESENTATION_CONTEXT() REPRESENTATION_CONTEXT('2D SPACE',''
  ) );
#80 = ORIENTED_EDGE('',*,*,#81,.T.);
#81 = EDGE_CURVE('',#60,#60,#82,.T.);
#82 = SURFACE_CURVE('',#83,(#103,#109),.PCURVE_S1.);
#83 = B_SPLINE_CURVE_WITH_KNOTS('',3,(#84,#85,#86,#87,#88,#89,#90,#91,
    #92,#93,#94,#95,#96,#97,#98,#99,#100,#101,#102),.UNSPECIFIED.,.T.,
  .F.,(1,1,1,1,1,1,1,1,1,1,1,1,1,1,1,1,1,1,1,1,1,1,1),(-0.1875,-0.125,
    -6.25E-02,4.4E-16,6.25E-02,0.125,0.1875,0.25,0.3125,0.375,0.4375,0.5
    ,0.5625,0.625,0.6875,0.75,0.8125,0.875,0.9375,1.,1.0625,1.125,1.1875
    ),.UNSPECIFIED.);
#84 = CARTESIAN_POINT('',(9.328437038775,3.863965137204,1.849277796644)
  );
#85 = CARTESIAN_POINT('',(10.097027491689,-8.46E-15,1.849277796644));
#86 = CARTESIAN_POINT('',(9.328437038775,-3.863965137204,1.849277796644)
  );
#87 = CARTESIAN_POINT('',(7.1396766092,-7.1396766092,1.849277796644));
#88 = CARTESIAN_POINT('',(3.863965137204,-9.328437038775,1.849277796644)
  );
#89 = CARTESIAN_POINT('',(-4.291E-14,-10.09702749168,1.849277796644));
#90 = CARTESIAN_POINT('',(-3.863965137204,-9.328437038775,1.849277796644
    ));
#91 = CARTESIAN_POINT('',(-7.1396766092,-7.1396766092,1.849277796644));
#92 = CARTESIAN_POINT('',(-9.328437038775,-3.863965137204,1.849277796644
    ));
#93 = CARTESIAN_POINT('',(-10.09702749168,4.889E-14,1.849277796644));
#94 = CARTESIAN_POINT('',(-9.328437038775,3.863965137204,1.849277796644)
  );
#95 = CARTESIAN_POINT('',(-7.1396766092,7.1396766092,1.849277796644));
#96 = CARTESIAN_POINT('',(-3.863965137204,9.328437038775,1.849277796644)
  );
#97 = CARTESIAN_POINT('',(3.21E-14,10.097027491689,1.849277796644));
#98 = CARTESIAN_POINT('',(3.863965137204,9.328437038775,1.849277796644)
  );
#99 = CARTESIAN_POINT('',(7.1396766092,7.1396766092,1.849277796644));
#100 = CARTESIAN_POINT('',(9.328437038775,3.863965137204,1.849277796644)
  );
#101 = CARTESIAN_POINT('',(10.097027491689,-8.46E-15,1.849277796644));
#102 = CARTESIAN_POINT('',(9.328437038775,-3.863965137204,1.849277796644
    ));
#103 = PCURVE('',#31,#104);
#104 = DEFINITIONAL_REPRESENTATION('',(#105),#108);
#105 = B_SPLINE_CURVE_WITH_KNOTS('',1,(#106,#107),.UNSPECIFIED.,.F.,.F.,
  (2,2),(4.4E-16,1.),.PIECEWISE_BEZIER_KNOTS.);
#106 = CARTESIAN_POINT('',(3.14159265359,0.150722203356));
#107 = CARTESIAN_POINT('',(9.424777960769,0.150722203356));
#108 = ( GEOMETRIC_REPRESENTATION_CONTEXT(2) 
PARAMETRIC_REPRESENTATION_CONTEXT() REPRESENTATION_CONTEXT('2D SPACE',''
  ) );
#109 = PCURVE('',#110,#187);
#110 = B_SPLINE_SURFACE_WITH_KNOTS('',3,3,(
    (#111,#112,#113,#114,#115,#116,#117,#118,#119,#120,#121,#122,#123
      ,#124,#125,#126,#127,#128,#129)
    ,(#130,#131,#132,#133,#134,#135,#136,#137,#138,#139,#140,#141,#142
      ,#143,#144,#145,#146,#147,#148)
    ,(#149,#150,#151,#152,#153,#154,#155,#156,#157,#158,#159,#160,#161
      ,#162,#163,#164,#165,#166,#167)
    ,(#168,#169,#170,#171,#172,#173,#174,#175,#176,#177,#178,#179,#180
      ,#181,#182,#183,#184,#185,#186
    )),.UNSPECIFIED.,.F.,.T.,.F.,(4,4),(1,1,1,1,1,1,1,1,1,1,1,1,1,1,1,1,
    1,1,1,1,1,1,1),(0.,1.),(-1.178097245096,-0.785398163397,
    -0.392699081699,0.,0.392699081699,0.785398163397,1.178097245096,
    1.570796326795,1.963495408494,2.356194490192,2.748893571891,
    3.14159265359,3.534291735289,3.926990816987,4.319689898686,
    4.712388980385,5.105088062083,5.497787143782,5.890486225481,
    6.28318530718,6.675884388878,7.068583470577,7.461282552276),
  .UNSPECIFIED.);
#111 = CARTESIAN_POINT('',(-8.655166115698,3.585109670425,2.302924317388
    ));
#112 = CARTESIAN_POINT('',(-9.368288767558,-1.046E-14,2.302924317388));
#113 = CARTESIAN_POINT('',(-8.655166115698,-3.585109670425,
    2.302924317388));
#114 = CARTESIAN_POINT('',(-6.624364619391,-6.624418892628,
    2.302924317388));
#115 = CARTESIAN_POINT('',(-3.585055397188,-8.655220388935,
    2.302924317389));
#116 = CARTESIAN_POINT('',(5.427323656257E-05,-9.368343040795,
    2.302924317389));
#117 = CARTESIAN_POINT('',(3.585163943661,-8.655220388935,2.302924317388
    ));
#118 = CARTESIAN_POINT('',(6.624473165864,-6.624418892628,2.302924317388
    ));
#119 = CARTESIAN_POINT('',(8.655274662171,-3.585109670425,2.302924317388
    ));
#120 = CARTESIAN_POINT('',(9.368397314031,-2.958E-14,2.302924317388));
#121 = CARTESIAN_POINT('',(8.655274662171,3.585109670425,2.302924317388)
  );
#122 = CARTESIAN_POINT('',(6.624473165864,6.624418892628,2.302924317388)
  );
#123 = CARTESIAN_POINT('',(3.585163943661,8.655220388935,2.302924317388)
  );
#124 = CARTESIAN_POINT('',(5.427323657741E-05,9.368343040795,
    2.302924317388));
#125 = CARTESIAN_POINT('',(-3.585055397188,8.655220388935,2.302924317388
    ));
#126 = CARTESIAN_POINT('',(-6.624364619391,6.624418892628,2.302924317388
    ));
#127 = CARTESIAN_POINT('',(-8.655166115698,3.585109670425,2.302924317388
    ));
#128 = CARTESIAN_POINT('',(-9.368288767558,-1.046E-14,2.302924317388));
#129 = CARTESIAN_POINT('',(-8.655166115698,-3.585109670425,
    2.302924317388));
#130 = CARTESIAN_POINT('',(-9.104011513812,3.771027521733,2.522375007069
    ));
#131 = CARTESIAN_POINT('',(-9.854115525614,-1.214E-14,2.522375007069));
#132 = CARTESIAN_POINT('',(-9.104011513812,-3.771027521733,
    2.522375007069));
#133 = CARTESIAN_POINT('',(-6.967896014494,-6.967950287731,
    2.522375007069));
#134 = CARTESIAN_POINT('',(-3.770973248496,-9.104065787049,
    2.522375007069));
#135 = CARTESIAN_POINT('',(5.427323656543E-05,-9.854169798851,
    2.522375007069));
#136 = CARTESIAN_POINT('',(3.771081794969,-9.104065787049,2.522375007069
    ));
#137 = CARTESIAN_POINT('',(6.968004560968,-6.967950287731,2.522375007069
    ));
#138 = CARTESIAN_POINT('',(9.104120060286,-3.771027521733,2.522375007069
    ));
#139 = CARTESIAN_POINT('',(9.854224072087,-2.332E-14,2.522375007069));
#140 = CARTESIAN_POINT('',(9.104120060286,3.771027521733,2.522375007069)
  );
#141 = CARTESIAN_POINT('',(6.968004560968,6.967950287731,2.522375007069)
  );
#142 = CARTESIAN_POINT('',(3.771081794969,9.104065787049,2.522375007069)
  );
#143 = CARTESIAN_POINT('',(5.427323657582E-05,9.854169798851,
    2.522375007069));
#144 = CARTESIAN_POINT('',(-3.770973248496,9.104065787049,2.522375007069
    ));
#145 = CARTESIAN_POINT('',(-6.967896014494,6.967950287731,2.522375007069
    ));
#146 = CARTESIAN_POINT('',(-9.104011513812,3.771027521733,2.522375007069
    ));
#147 = CARTESIAN_POINT('',(-9.854115525614,-1.214E-14,2.522375007069));
#148 = CARTESIAN_POINT('',(-9.104011513812,-3.771027521733,
    2.522375007069));
#149 = CARTESIAN_POINT('',(-9.32843421287,3.863986447386,2.371159500154)
  );
#150 = CARTESIAN_POINT('',(-10.09702890464,-1.106E-14,2.371159500154));
#151 = CARTESIAN_POINT('',(-9.32843421287,-3.863986447386,2.371159500154
    ));
#152 = CARTESIAN_POINT('',(-7.139661712046,-7.139715985283,
    2.371159500155));
#153 = CARTESIAN_POINT('',(-3.86393217415,-9.328488486106,2.371159500155
    ));
#154 = CARTESIAN_POINT('',(5.427323656479E-05,-10.09708317787,
    2.371159500155));
#155 = CARTESIAN_POINT('',(3.864040720623,-9.328488486106,2.371159500155
    ));
#156 = CARTESIAN_POINT('',(7.139770258519,-7.139715985283,2.371159500154
    ));
#157 = CARTESIAN_POINT('',(9.328542759343,-3.863986447386,2.371159500154
    ));
#158 = CARTESIAN_POINT('',(10.097137451115,-2.585E-14,2.371159500154));
#159 = CARTESIAN_POINT('',(9.328542759343,3.863986447386,2.371159500154)
  );
#160 = CARTESIAN_POINT('',(7.139770258519,7.139715985283,2.371159500154)
  );
#161 = CARTESIAN_POINT('',(3.864040720623,9.328488486106,2.371159500154)
  );
#162 = CARTESIAN_POINT('',(5.427323657203E-05,10.097083177879,
    2.371159500154));
#163 = CARTESIAN_POINT('',(-3.86393217415,9.328488486106,2.371159500154)
  );
#164 = CARTESIAN_POINT('',(-7.139661712046,7.139715985283,2.371159500154
    ));
#165 = CARTESIAN_POINT('',(-9.32843421287,3.863986447386,2.371159500154)
  );
#166 = CARTESIAN_POINT('',(-10.09702890464,-1.106E-14,2.371159500154));
#167 = CARTESIAN_POINT('',(-9.32843421287,-3.863986447386,2.371159500154
    ));
#168 = CARTESIAN_POINT('',(-9.32843421287,3.863986447386,1.849277796644)
  );
#169 = CARTESIAN_POINT('',(-10.09702890464,-1.106E-14,1.849277796644));
#170 = CARTESIAN_POINT('',(-9.32843421287,-3.863986447386,1.849277796644
    ));
#171 = CARTESIAN_POINT('',(-7.139661712046,-7.139715985283,
    1.849277796644));
#172 = CARTESIAN_POINT('',(-3.86393217415,-9.328488486106,1.849277796644
    ));
#173 = CARTESIAN_POINT('',(5.427323655749E-05,-10.09708317787,
    1.849277796644));
#174 = CARTESIAN_POINT('',(3.864040720623,-9.328488486106,1.849277796644
    ));
#175 = CARTESIAN_POINT('',(7.139770258519,-7.139715985283,1.849277796644
    ));
#176 = CARTESIAN_POINT('',(9.328542759343,-3.863986447386,1.849277796644
    ));
#177 = CARTESIAN_POINT('',(10.097137451115,-4.084E-14,1.849277796644));
#178 = CARTESIAN_POINT('',(9.328542759343,3.863986447386,1.849277796644)
  );
#179 = CARTESIAN_POINT('',(7.139770258519,7.139715985283,1.849277796644)
  );
#180 = CARTESIAN_POINT('',(3.864040720623,9.328488486106,1.849277796644)
  );
#181 = CARTESIAN_POINT('',(5.427323658271E-05,10.097083177879,
    1.849277796644));
#182 = CARTESIAN_POINT('',(-3.86393217415,9.328488486106,1.849277796644)
  );
#183 = CARTESIAN_POINT('',(-7.139661712046,7.139715985283,1.849277796644
    ));
#184 = CARTESIAN_POINT('',(-9.32843421287,3.863986447386,1.849277796644)
  );
#185 = CARTESIAN_POINT('',(-10.09702890464,-1.106E-14,1.849277796644));
#186 = CARTESIAN_POINT('',(-9.32843421287,-3.863986447386,1.849277796644
    ));
#187 = DEFINITIONAL_REPRESENTATION('',(#188),#191);
#188 = B_SPLINE_CURVE_WITH_KNOTS('',1,(#189,#190),.UNSPECIFIED.,.F.,.F.,
  (2,2),(4.4E-16,1.),.PIECEWISE_BEZIER_KNOTS.);
#189 = CARTESIAN_POINT('',(1.,9.424777960769));
#190 = CARTESIAN_POINT('',(1.,3.14159265359));
#191 = ( GEOMETRIC_REPRESENTATION_CONTEXT(2) 
PARAMETRIC_REPRESENTATION_CONTEXT() REPRESENTATION_CONTEXT('2D SPACE',''
  ) );
#192 = ORIENTED_EDGE('',*,*,#59,.T.);
#193 = ADVANCED_FACE('',(#194),#208,.F.);
#194 = FACE_BOUND('',#195,.T.);
#195 = EDGE_LOOP('',(#196,#231,#259,#287));
#196 = ORIENTED_EDGE('',*,*,#197,.T.);
#197 = EDGE_CURVE('',#198,#200,#202,.T.);
#198 = VERTEX_POINT('',#199);
#199 = CARTESIAN_POINT('',(-15.84083067405,-15.84083067405,5.5));
#200 = VERTEX_POINT('',#201);
#201 = CARTESIAN_POINT('',(-15.84083067405,-15.84083067405,0.));
#202 = SURFACE_CURVE('',#203,(#207,#219),.PCURVE_S1.);
#203 = LINE('',#204,#205);
#204 = CARTESIAN_POINT('',(-15.84083067405,-15.84083067405,5.5));
#205 = VECTOR('',#206,1.);
#206 = DIRECTION('',(0.,0.,-1.));
#207 = PCURVE('',#208,#213);
#208 = PLANE('',#209);
#209 = AXIS2_PLACEMENT_3D('',#210,#211,#212);
#210 = CARTESIAN_POINT('',(0.,-15.84083067405,5.5));
#211 = DIRECTION('',(0.,1.,0.));
#212 = DIRECTION('',(0.,-0.,1.));
#213 = DEFINITIONAL_REPRESENTATION('',(#214),#218);
#214 = LINE('',#215,#216);
#215 = CARTESIAN_POINT('',(0.,-15.84083067405));
#216 = VECTOR('',#217,1.);
#217 = DIRECTION('',(-1.,0.));
#218 = ( GEOMETRIC_REPRESENTATION_CONTEXT(2) 
PARAMETRIC_REPRESENTATION_CONTEXT() REPRESENTATION_CONTEXT('2D SPACE',''
  ) );
#219 = PCURVE('',#220,#225);
#220 = PLANE('',#221);
#221 = AXIS2_PLACEMENT_3D('',#222,#223,#224);
#222 = CARTESIAN_POINT('',(-15.84083067405,0.,5.5));
#223 = DIRECTION('',(-1.,0.,0.));
#224 = DIRECTION('',(0.,0.,1.));
#225 = DEFINITIONAL_REPRESENTATION('',(#226),#230);
#226 = LINE('',#227,#228);
#227 = CARTESIAN_POINT('',(0.,-15.84083067405));
#228 = VECTOR('',#229,1.);
#229 = DIRECTION('',(-1.,0.));
#230 = ( GEOMETRIC_REPRESENTATION_CONTEXT(2) 
PARAMETRIC_REPRESENTATION_CONTEXT() REPRESENTATION_CONTEXT('2D SPACE',''
  ) );
#231 = ORIENTED_EDGE('',*,*,#232,.T.);
#232 = EDGE_CURVE('',#200,#233,#235,.T.);
#233 = VERTEX_POINT('',#234);
#234 = CARTESIAN_POINT('',(15.840830674051,-15.84083067405,0.));
#235 = SURFACE_CURVE('',#236,(#240,#247),.PCURVE_S1.);
#236 = LINE('',#237,#238);
#237 = CARTESIAN_POINT('',(0.,-15.84083067405,0.));
#238 = VECTOR('',#239,1.);
#239 = DIRECTION('',(1.,0.,0.));
#240 = PCURVE('',#208,#241);
#241 = DEFINITIONAL_REPRESENTATION('',(#242),#246);
#242 = LINE('',#243,#244);
#243 = CARTESIAN_POINT('',(-5.5,0.));
#244 = VECTOR('',#245,1.);
#245 = DIRECTION('',(0.,1.));
#246 = ( GEOMETRIC_REPRESENTATION_CONTEXT(2) 
PARAMETRIC_REPRESENTATION_CONTEXT() REPRESENTATION_CONTEXT('2D SPACE',''
  ) );
#247 = PCURVE('',#248,#253);
#248 = PLANE('',#249);
#249 = AXIS2_PLACEMENT_3D('',#250,#251,#252);
#250 = CARTESIAN_POINT('',(0.,0.,0.));
#251 = DIRECTION('',(0.,0.,1.));
#252 = DIRECTION('',(1.,0.,-0.));
#253 = DEFINITIONAL_REPRESENTATION('',(#254),#258);
#254 = LINE('',#255,#256);
#255 = CARTESIAN_POINT('',(0.,-15.84083067405));
#256 = VECTOR('',#257,1.);
#257 = DIRECTION('',(1.,0.));
#258 = ( GEOMETRIC_REPRESENTATION_CONTEXT(2) 
PARAMETRIC_REPRESENTATION_CONTEXT() REPRESENTATION_CONTEXT('2D SPACE',''
  ) );
#259 = ORIENTED_EDGE('',*,*,#260,.F.);
#260 = EDGE_CURVE('',#261,#233,#263,.T.);
#261 = VERTEX_POINT('',#262);
#262 = CARTESIAN_POINT('',(15.840830674051,-15.84083067405,5.5));
#263 = SURFACE_CURVE('',#264,(#268,#275),.PCURVE_S1.);
#264 = LINE('',#265,#266);
#265 = CARTESIAN_POINT('',(15.840830674051,-15.84083067405,5.5));
#266 = VECTOR('',#267,1.);
#267 = DIRECTION('',(0.,0.,-1.));
#268 = PCURVE('',#208,#269);
#269 = DEFINITIONAL_REPRESENTATION('',(#270),#274);
#270 = LINE('',#271,#272);
#271 = CARTESIAN_POINT('',(0.,15.840830674051));
#272 = VECTOR('',#273,1.);
#273 = DIRECTION('',(-1.,0.));
#274 = ( GEOMETRIC_REPRESENTATION_CONTEXT(2) 
PARAMETRIC_REPRESENTATION_CONTEXT() REPRESENTATION_CONTEXT('2D SPACE',''
  ) );
#275 = PCURVE('',#276,#281);
#276 = PLANE('',#277);
#277 = AXIS2_PLACEMENT_3D('',#278,#279,#280);
#278 = CARTESIAN_POINT('',(15.840830674051,0.,5.5));
#279 = DIRECTION('',(-1.,0.,0.));
#280 = DIRECTION('',(0.,0.,1.));
#281 = DEFINITIONAL_REPRESENTATION('',(#282),#286);
#282 = LINE('',#283,#284);
#283 = CARTESIAN_POINT('',(0.,-15.84083067405));
#284 = VECTOR('',#285,1.);
#285 = DIRECTION('',(-1.,0.));
#286 = ( GEOMETRIC_REPRESENTATION_CONTEXT(2) 
PARAMETRIC_REPRESENTATION_CONTEXT() REPRESENTATION_CONTEXT('2D SPACE',''
  ) );
#287 = ORIENTED_EDGE('',*,*,#288,.F.);
#288 = EDGE_CURVE('',#198,#261,#289,.T.);
#289 = SURFACE_CURVE('',#290,(#294,#301),.PCURVE_S1.);
#290 = LINE('',#291,#292);
#291 = CARTESIAN_POINT('',(0.,-15.84083067405,5.5));
#292 = VECTOR('',#293,1.);
#293 = DIRECTION('',(1.,0.,0.));
#294 = PCURVE('',#208,#295);
#295 = DEFINITIONAL_REPRESENTATION('',(#296),#300);
#296 = LINE('',#297,#298);
#297 = CARTESIAN_POINT('',(0.,0.));
#298 = VECTOR('',#299,1.);
#299 = DIRECTION('',(0.,1.));
#300 = ( GEOMETRIC_REPRESENTATION_CONTEXT(2) 
PARAMETRIC_REPRESENTATION_CONTEXT() REPRESENTATION_CONTEXT('2D SPACE',''
  ) );
#301 = PCURVE('',#302,#307);
#302 = PLANE('',#303);
#303 = AXIS2_PLACEMENT_3D('',#304,#305,#306);
#304 = CARTESIAN_POINT('',(0.,0.,5.5));
#305 = DIRECTION('',(0.,0.,1.));
#306 = DIRECTION('',(1.,0.,-0.));
#307 = DEFINITIONAL_REPRESENTATION('',(#308),#312);
#308 = LINE('',#309,#310);
#309 = CARTESIAN_POINT('',(0.,-15.84083067405));
#310 = VECTOR('',#311,1.);
#311 = DIRECTION('',(1.,0.));
#312 = ( GEOMETRIC_REPRESENTATION_CONTEXT(2) 
PARAMETRIC_REPRESENTATION_CONTEXT() REPRESENTATION_CONTEXT('2D SPACE',''
  ) );
#313 = ADVANCED_FACE('',(#314),#276,.F.);
#314 = FACE_BOUND('',#315,.T.);
#315 = EDGE_LOOP('',(#316,#317,#340,#368));
#316 = ORIENTED_EDGE('',*,*,#260,.T.);
#317 = ORIENTED_EDGE('',*,*,#318,.T.);
#318 = EDGE_CURVE('',#233,#319,#321,.T.);
#319 = VERTEX_POINT('',#320);
#320 = CARTESIAN_POINT('',(15.840830674051,15.840830674051,0.));
#321 = SURFACE_CURVE('',#322,(#326,#333),.PCURVE_S1.);
#322 = LINE('',#323,#324);
#323 = CARTESIAN_POINT('',(15.840830674051,0.,0.));
#324 = VECTOR('',#325,1.);
#325 = DIRECTION('',(0.,1.,0.));
#326 = PCURVE('',#276,#327);
#327 = DEFINITIONAL_REPRESENTATION('',(#328),#332);
#328 = LINE('',#329,#330);
#329 = CARTESIAN_POINT('',(-5.5,0.));
#330 = VECTOR('',#331,1.);
#331 = DIRECTION('',(0.,1.));
#332 = ( GEOMETRIC_REPRESENTATION_CONTEXT(2) 
PARAMETRIC_REPRESENTATION_CONTEXT() REPRESENTATION_CONTEXT('2D SPACE',''
  ) );
#333 = PCURVE('',#248,#334);
#334 = DEFINITIONAL_REPRESENTATION('',(#335),#339);
#335 = LINE('',#336,#337);
#336 = CARTESIAN_POINT('',(15.840830674051,0.));
#337 = VECTOR('',#338,1.);
#338 = DIRECTION('',(0.,1.));
#339 = ( GEOMETRIC_REPRESENTATION_CONTEXT(2) 
PARAMETRIC_REPRESENTATION_CONTEXT() REPRESENTATION_CONTEXT('2D SPACE',''
  ) );
#340 = ORIENTED_EDGE('',*,*,#341,.F.);
#341 = EDGE_CURVE('',#342,#319,#344,.T.);
#342 = VERTEX_POINT('',#343);
#343 = CARTESIAN_POINT('',(15.840830674051,15.840830674051,5.5));
#344 = SURFACE_CURVE('',#345,(#349,#356),.PCURVE_S1.);
#345 = LINE('',#346,#347);
#346 = CARTESIAN_POINT('',(15.840830674051,15.840830674051,5.5));
#347 = VECTOR('',#348,1.);
#348 = DIRECTION('',(0.,0.,-1.));
#349 = PCURVE('',#276,#350);
#350 = DEFINITIONAL_REPRESENTATION('',(#351),#355);
#351 = LINE('',#352,#353);
#352 = CARTESIAN_POINT('',(0.,15.840830674051));
#353 = VECTOR('',#354,1.);
#354 = DIRECTION('',(-1.,0.));
#355 = ( GEOMETRIC_REPRESENTATION_CONTEXT(2) 
PARAMETRIC_REPRESENTATION_CONTEXT() REPRESENTATION_CONTEXT('2D SPACE',''
  ) );
#356 = PCURVE('',#357,#362);
#357 = PLANE('',#358);
#358 = AXIS2_PLACEMENT_3D('',#359,#360,#361);
#359 = CARTESIAN_POINT('',(0.,15.840830674051,5.5));
#360 = DIRECTION('',(0.,1.,0.));
#361 = DIRECTION('',(0.,-0.,1.));
#362 = DEFINITIONAL_REPRESENTATION('',(#363),#367);
#363 = LINE('',#364,#365);
#364 = CARTESIAN_POINT('',(0.,15.840830674051));
#365 = VECTOR('',#366,1.);
#366 = DIRECTION('',(-1.,0.));
#367 = ( GEOMETRIC_REPRESENTATION_CONTEXT(2) 
PARAMETRIC_REPRESENTATION_CONTEXT() REPRESENTATION_CONTEXT('2D SPACE',''
  ) );
#368 = ORIENTED_EDGE('',*,*,#369,.F.);
#369 = EDGE_CURVE('',#261,#342,#370,.T.);
#370 = SURFACE_CURVE('',#371,(#375,#382),.PCURVE_S1.);
#371 = LINE('',#372,#373);
#372 = CARTESIAN_POINT('',(15.840830674051,0.,5.5));
#373 = VECTOR('',#374,1.);
#374 = DIRECTION('',(0.,1.,0.));
#375 = PCURVE('',#276,#376);
#376 = DEFINITIONAL_REPRESENTATION('',(#377),#381);
#377 = LINE('',#378,#379);
#378 = CARTESIAN_POINT('',(0.,0.));
#379 = VECTOR('',#380,1.);
#380 = DIRECTION('',(0.,1.));
#381 = ( GEOMETRIC_REPRESENTATION_CONTEXT(2) 
PARAMETRIC_REPRESENTATION_CONTEXT() REPRESENTATION_CONTEXT('2D SPACE',''
  ) );
#382 = PCURVE('',#302,#383);
#383 = DEFINITIONAL_REPRESENTATION('',(#384),#388);
#384 = LINE('',#385,#386);
#385 = CARTESIAN_POINT('',(15.840830674051,0.));
#386 = VECTOR('',#387,1.);
#387 = DIRECTION('',(0.,1.));
#388 = ( GEOMETRIC_REPRESENTATION_CONTEXT(2) 
PARAMETRIC_REPRESENTATION_CONTEXT() REPRESENTATION_CONTEXT('2D SPACE',''
  ) );
#389 = ADVANCED_FACE('',(#390),#357,.T.);
#390 = FACE_BOUND('',#391,.T.);
#391 = EDGE_LOOP('',(#392,#415,#438,#459));
#392 = ORIENTED_EDGE('',*,*,#393,.F.);
#393 = EDGE_CURVE('',#394,#319,#396,.T.);
#394 = VERTEX_POINT('',#395);
#395 = CARTESIAN_POINT('',(-15.84083067405,15.840830674051,0.));
#396 = SURFACE_CURVE('',#397,(#401,#408),.PCURVE_S1.);
#397 = LINE('',#398,#399);
#398 = CARTESIAN_POINT('',(0.,15.840830674051,0.));
#399 = VECTOR('',#400,1.);
#400 = DIRECTION('',(1.,0.,0.));
#401 = PCURVE('',#357,#402);
#402 = DEFINITIONAL_REPRESENTATION('',(#403),#407);
#403 = LINE('',#404,#405);
#404 = CARTESIAN_POINT('',(-5.5,0.));
#405 = VECTOR('',#406,1.);
#406 = DIRECTION('',(0.,1.));
#407 = ( GEOMETRIC_REPRESENTATION_CONTEXT(2) 
PARAMETRIC_REPRESENTATION_CONTEXT() REPRESENTATION_CONTEXT('2D SPACE',''
  ) );
#408 = PCURVE('',#248,#409);
#409 = DEFINITIONAL_REPRESENTATION('',(#410),#414);
#410 = LINE('',#411,#412);
#411 = CARTESIAN_POINT('',(0.,15.840830674051));
#412 = VECTOR('',#413,1.);
#413 = DIRECTION('',(1.,0.));
#414 = ( GEOMETRIC_REPRESENTATION_CONTEXT(2) 
PARAMETRIC_REPRESENTATION_CONTEXT() REPRESENTATION_CONTEXT('2D SPACE',''
  ) );
#415 = ORIENTED_EDGE('',*,*,#416,.F.);
#416 = EDGE_CURVE('',#417,#394,#419,.T.);
#417 = VERTEX_POINT('',#418);
#418 = CARTESIAN_POINT('',(-15.84083067405,15.840830674051,5.5));
#419 = SURFACE_CURVE('',#420,(#424,#431),.PCURVE_S1.);
#420 = LINE('',#421,#422);
#421 = CARTESIAN_POINT('',(-15.84083067405,15.840830674051,5.5));
#422 = VECTOR('',#423,1.);
#423 = DIRECTION('',(0.,0.,-1.));
#424 = PCURVE('',#357,#425);
#425 = DEFINITIONAL_REPRESENTATION('',(#426),#430);
#426 = LINE('',#427,#428);
#427 = CARTESIAN_POINT('',(0.,-15.84083067405));
#428 = VECTOR('',#429,1.);
#429 = DIRECTION('',(-1.,0.));
#430 = ( GEOMETRIC_REPRESENTATION_CONTEXT(2) 
PARAMETRIC_REPRESENTATION_CONTEXT() REPRESENTATION_CONTEXT('2D SPACE',''
  ) );
#431 = PCURVE('',#220,#432);
#432 = DEFINITIONAL_REPRESENTATION('',(#433),#437);
#433 = LINE('',#434,#435);
#434 = CARTESIAN_POINT('',(0.,15.840830674051));
#435 = VECTOR('',#436,1.);
#436 = DIRECTION('',(-1.,0.));
#437 = ( GEOMETRIC_REPRESENTATION_CONTEXT(2) 
PARAMETRIC_REPRESENTATION_CONTEXT() REPRESENTATION_CONTEXT('2D SPACE',''
  ) );
#438 = ORIENTED_EDGE('',*,*,#439,.T.);
#439 = EDGE_CURVE('',#417,#342,#440,.T.);
#440 = SURFACE_CURVE('',#441,(#445,#452),.PCURVE_S1.);
#441 = LINE('',#442,#443);
#442 = CARTESIAN_POINT('',(0.,15.840830674051,5.5));
#443 = VECTOR('',#444,1.);
#444 = DIRECTION('',(1.,0.,0.));
#445 = PCURVE('',#357,#446);
#446 = DEFINITIONAL_REPRESENTATION('',(#447),#451);
#447 = LINE('',#448,#449);
#448 = CARTESIAN_POINT('',(0.,0.));
#449 = VECTOR('',#450,1.);
#450 = DIRECTION('',(0.,1.));
#451 = ( GEOMETRIC_REPRESENTATION_CONTEXT(2) 
PARAMETRIC_REPRESENTATION_CONTEXT() REPRESENTATION_CONTEXT('2D SPACE',''
  ) );
#452 = PCURVE('',#302,#453);
#453 = DEFINITIONAL_REPRESENTATION('',(#454),#458);
#454 = LINE('',#455,#456);
#455 = CARTESIAN_POINT('',(0.,15.840830674051));
#456 = VECTOR('',#457,1.);
#457 = DIRECTION('',(1.,0.));
#458 = ( GEOMETRIC_REPRESENTATION_CONTEXT(2) 
PARAMETRIC_REPRESENTATION_CONTEXT() REPRESENTATION_CONTEXT('2D SPACE',''
  ) );
#459 = ORIENTED_EDGE('',*,*,#341,.T.);
#460 = ADVANCED_FACE('',(#461,#492,#523,#554,#585),#302,.T.);
#461 = FACE_BOUND('',#462,.T.);
#462 = EDGE_LOOP('',(#463));
#463 = ORIENTED_EDGE('',*,*,#464,.F.);
#464 = EDGE_CURVE('',#465,#465,#467,.T.);
#465 = VERTEX_POINT('',#466);
#466 = CARTESIAN_POINT('',(13.490830674051,-11.84083067405,5.5));
#467 = SURFACE_CURVE('',#468,(#473,#480),.PCURVE_S1.);
#468 = CIRCLE('',#469,1.65);
#469 = AXIS2_PLACEMENT_3D('',#470,#471,#472);
#470 = CARTESIAN_POINT('',(11.840830674051,-11.84083067405,5.5));
#471 = DIRECTION('',(0.,0.,1.));
#472 = DIRECTION('',(1.,0.,-0.));
#473 = PCURVE('',#302,#474);
#474 = DEFINITIONAL_REPRESENTATION('',(#475),#479);
#475 = CIRCLE('',#476,1.65);
#476 = AXIS2_PLACEMENT_2D('',#477,#478);
#477 = CARTESIAN_POINT('',(11.840830674051,-11.84083067405));
#478 = DIRECTION('',(1.,0.));
#479 = ( GEOMETRIC_REPRESENTATION_CONTEXT(2) 
PARAMETRIC_REPRESENTATION_CONTEXT() REPRESENTATION_CONTEXT('2D SPACE',''
  ) );
#480 = PCURVE('',#481,#486);
#481 = CYLINDRICAL_SURFACE('',#482,1.65);
#482 = AXIS2_PLACEMENT_3D('',#483,#484,#485);
#483 = CARTESIAN_POINT('',(11.840830674051,-11.84083067405,-4.));
#484 = DIRECTION('',(0.,0.,1.));
#485 = DIRECTION('',(1.,0.,-0.));
#486 = DEFINITIONAL_REPRESENTATION('',(#487),#491);
#487 = LINE('',#488,#489);
#488 = CARTESIAN_POINT('',(0.,9.5));
#489 = VECTOR('',#490,1.);
#490 = DIRECTION('',(1.,0.));
#491 = ( GEOMETRIC_REPRESENTATION_CONTEXT(2) 
PARAMETRIC_REPRESENTATION_CONTEXT() REPRESENTATION_CONTEXT('2D SPACE',''
  ) );
#492 = FACE_BOUND('',#493,.T.);
#493 = EDGE_LOOP('',(#494));
#494 = ORIENTED_EDGE('',*,*,#495,.F.);
#495 = EDGE_CURVE('',#496,#496,#498,.T.);
#496 = VERTEX_POINT('',#497);
#497 = CARTESIAN_POINT('',(-10.19083067405,-11.84083067405,5.5));
#498 = SURFACE_CURVE('',#499,(#504,#511),.PCURVE_S1.);
#499 = CIRCLE('',#500,1.65);
#500 = AXIS2_PLACEMENT_3D('',#501,#502,#503);
#501 = CARTESIAN_POINT('',(-11.84083067405,-11.84083067405,5.5));
#502 = DIRECTION('',(0.,0.,1.));
#503 = DIRECTION('',(1.,0.,-0.));
#504 = PCURVE('',#302,#505);
#505 = DEFINITIONAL_REPRESENTATION('',(#506),#510);
#506 = CIRCLE('',#507,1.65);
#507 = AXIS2_PLACEMENT_2D('',#508,#509);
#508 = CARTESIAN_POINT('',(-11.84083067405,-11.84083067405));
#509 = DIRECTION('',(1.,0.));
#510 = ( GEOMETRIC_REPRESENTATION_CONTEXT(2) 
PARAMETRIC_REPRESENTATION_CONTEXT() REPRESENTATION_CONTEXT('2D SPACE',''
  ) );
#511 = PCURVE('',#512,#517);
#512 = CYLINDRICAL_SURFACE('',#513,1.65);
#513 = AXIS2_PLACEMENT_3D('',#514,#515,#516);
#514 = CARTESIAN_POINT('',(-11.84083067405,-11.84083067405,-4.));
#515 = DIRECTION('',(0.,0.,1.));
#516 = DIRECTION('',(1.,0.,-0.));
#517 = DEFINITIONAL_REPRESENTATION('',(#518),#522);
#518 = LINE('',#519,#520);
#519 = CARTESIAN_POINT('',(0.,9.5));
#520 = VECTOR('',#521,1.);
#521 = DIRECTION('',(1.,0.));
#522 = ( GEOMETRIC_REPRESENTATION_CONTEXT(2) 
PARAMETRIC_REPRESENTATION_CONTEXT() REPRESENTATION_CONTEXT('2D SPACE',''
  ) );
#523 = FACE_BOUND('',#524,.T.);
#524 = EDGE_LOOP('',(#525));
#525 = ORIENTED_EDGE('',*,*,#526,.F.);
#526 = EDGE_CURVE('',#527,#527,#529,.T.);
#527 = VERTEX_POINT('',#528);
#528 = CARTESIAN_POINT('',(-10.19083067405,11.840830674051,5.5));
#529 = SURFACE_CURVE('',#530,(#535,#542),.PCURVE_S1.);
#530 = CIRCLE('',#531,1.65);
#531 = AXIS2_PLACEMENT_3D('',#532,#533,#534);
#532 = CARTESIAN_POINT('',(-11.84083067405,11.840830674051,5.5));
#533 = DIRECTION('',(0.,0.,1.));
#534 = DIRECTION('',(1.,0.,-0.));
#535 = PCURVE('',#302,#536);
#536 = DEFINITIONAL_REPRESENTATION('',(#537),#541);
#537 = CIRCLE('',#538,1.65);
#538 = AXIS2_PLACEMENT_2D('',#539,#540);
#539 = CARTESIAN_POINT('',(-11.84083067405,11.840830674051));
#540 = DIRECTION('',(1.,0.));
#541 = ( GEOMETRIC_REPRESENTATION_CONTEXT(2) 
PARAMETRIC_REPRESENTATION_CONTEXT() REPRESENTATION_CONTEXT('2D SPACE',''
  ) );
#542 = PCURVE('',#543,#548);
#543 = CYLINDRICAL_SURFACE('',#544,1.65);
#544 = AXIS2_PLACEMENT_3D('',#545,#546,#547);
#545 = CARTESIAN_POINT('',(-11.84083067405,11.840830674051,-4.));
#546 = DIRECTION('',(0.,0.,1.));
#547 = DIRECTION('',(1.,0.,-0.));
#548 = DEFINITIONAL_REPRESENTATION('',(#549),#553);
#549 = LINE('',#550,#551);
#550 = CARTESIAN_POINT('',(0.,9.5));
#551 = VECTOR('',#552,1.);
#552 = DIRECTION('',(1.,0.));
#553 = ( GEOMETRIC_REPRESENTATION_CONTEXT(2) 
PARAMETRIC_REPRESENTATION_CONTEXT() REPRESENTATION_CONTEXT('2D SPACE',''
  ) );
#554 = FACE_BOUND('',#555,.T.);
#555 = EDGE_LOOP('',(#556));
#556 = ORIENTED_EDGE('',*,*,#557,.F.);
#557 = EDGE_CURVE('',#558,#558,#560,.T.);
#558 = VERTEX_POINT('',#559);
#559 = CARTESIAN_POINT('',(13.490830674051,11.840830674051,5.5));
#560 = SURFACE_CURVE('',#561,(#566,#573),.PCURVE_S1.);
#561 = CIRCLE('',#562,1.65);
#562 = AXIS2_PLACEMENT_3D('',#563,#564,#565);
#563 = CARTESIAN_POINT('',(11.840830674051,11.840830674051,5.5));
#564 = DIRECTION('',(0.,0.,1.));
#565 = DIRECTION('',(1.,0.,-0.));
#566 = PCURVE('',#302,#567);
#567 = DEFINITIONAL_REPRESENTATION('',(#568),#572);
#568 = CIRCLE('',#569,1.65);
#569 = AXIS2_PLACEMENT_2D('',#570,#571);
#570 = CARTESIAN_POINT('',(11.840830674051,11.840830674051));
#571 = DIRECTION('',(1.,0.));
#572 = ( GEOMETRIC_REPRESENTATION_CONTEXT(2) 
PARAMETRIC_REPRESENTATION_CONTEXT() REPRESENTATION_CONTEXT('2D SPACE',''
  ) );
#573 = PCURVE('',#574,#579);
#574 = CYLINDRICAL_SURFACE('',#575,1.65);
#575 = AXIS2_PLACEMENT_3D('',#576,#577,#578);
#576 = CARTESIAN_POINT('',(11.840830674051,11.840830674051,-4.));
#577 = DIRECTION('',(0.,0.,1.));
#578 = DIRECTION('',(1.,0.,-0.));
#579 = DEFINITIONAL_REPRESENTATION('',(#580),#584);
#580 = LINE('',#581,#582);
#581 = CARTESIAN_POINT('',(0.,9.5));
#582 = VECTOR('',#583,1.);
#583 = DIRECTION('',(1.,0.));
#584 = ( GEOMETRIC_REPRESENTATION_CONTEXT(2) 
PARAMETRIC_REPRESENTATION_CONTEXT() REPRESENTATION_CONTEXT('2D SPACE',''
  ) );
#585 = FACE_BOUND('',#586,.T.);
#586 = EDGE_LOOP('',(#587,#608,#609,#610));
#587 = ORIENTED_EDGE('',*,*,#588,.F.);
#588 = EDGE_CURVE('',#198,#417,#589,.T.);
#589 = SURFACE_CURVE('',#590,(#594,#601),.PCURVE_S1.);
#590 = LINE('',#591,#592);
#591 = CARTESIAN_POINT('',(-15.84083067405,0.,5.5));
#592 = VECTOR('',#593,1.);
#593 = DIRECTION('',(0.,1.,0.));
#594 = PCURVE('',#302,#595);
#595 = DEFINITIONAL_REPRESENTATION('',(#596),#600);
#596 = LINE('',#597,#598);
#597 = CARTESIAN_POINT('',(-15.84083067405,0.));
#598 = VECTOR('',#599,1.);
#599 = DIRECTION('',(0.,1.));
#600 = ( GEOMETRIC_REPRESENTATION_CONTEXT(2) 
PARAMETRIC_REPRESENTATION_CONTEXT() REPRESENTATION_CONTEXT('2D SPACE',''
  ) );
#601 = PCURVE('',#220,#602);
#602 = DEFINITIONAL_REPRESENTATION('',(#603),#607);
#603 = LINE('',#604,#605);
#604 = CARTESIAN_POINT('',(0.,0.));
#605 = VECTOR('',#606,1.);
#606 = DIRECTION('',(0.,1.));
#607 = ( GEOMETRIC_REPRESENTATION_CONTEXT(2) 
PARAMETRIC_REPRESENTATION_CONTEXT() REPRESENTATION_CONTEXT('2D SPACE',''
  ) );
#608 = ORIENTED_EDGE('',*,*,#288,.T.);
#609 = ORIENTED_EDGE('',*,*,#369,.T.);
#610 = ORIENTED_EDGE('',*,*,#439,.F.);
#611 = ADVANCED_FACE('',(#612),#220,.T.);
#612 = FACE_BOUND('',#613,.T.);
#613 = EDGE_LOOP('',(#614,#635,#636,#637));
#614 = ORIENTED_EDGE('',*,*,#615,.F.);
#615 = EDGE_CURVE('',#200,#394,#616,.T.);
#616 = SURFACE_CURVE('',#617,(#621,#628),.PCURVE_S1.);
#617 = LINE('',#618,#619);
#618 = CARTESIAN_POINT('',(-15.84083067405,0.,0.));
#619 = VECTOR('',#620,1.);
#620 = DIRECTION('',(0.,1.,0.));
#621 = PCURVE('',#220,#622);
#622 = DEFINITIONAL_REPRESENTATION('',(#623),#627);
#623 = LINE('',#624,#625);
#624 = CARTESIAN_POINT('',(-5.5,0.));
#625 = VECTOR('',#626,1.);
#626 = DIRECTION('',(0.,1.));
#627 = ( GEOMETRIC_REPRESENTATION_CONTEXT(2) 
PARAMETRIC_REPRESENTATION_CONTEXT() REPRESENTATION_CONTEXT('2D SPACE',''
  ) );
#628 = PCURVE('',#248,#629);
#629 = DEFINITIONAL_REPRESENTATION('',(#630),#634);
#630 = LINE('',#631,#632);
#631 = CARTESIAN_POINT('',(-15.84083067405,0.));
#632 = VECTOR('',#633,1.);
#633 = DIRECTION('',(0.,1.));
#634 = ( GEOMETRIC_REPRESENTATION_CONTEXT(2) 
PARAMETRIC_REPRESENTATION_CONTEXT() REPRESENTATION_CONTEXT('2D SPACE',''
  ) );
#635 = ORIENTED_EDGE('',*,*,#197,.F.);
#636 = ORIENTED_EDGE('',*,*,#588,.T.);
#637 = ORIENTED_EDGE('',*,*,#416,.T.);
#638 = ADVANCED_FACE('',(#639,#665,#691,#717,#743,#778),#248,.F.);
#639 = FACE_BOUND('',#640,.T.);
#640 = EDGE_LOOP('',(#641));
#641 = ORIENTED_EDGE('',*,*,#642,.T.);
#642 = EDGE_CURVE('',#643,#643,#645,.T.);
#643 = VERTEX_POINT('',#644);
#644 = CARTESIAN_POINT('',(13.490830674051,-11.84083067405,0.));
#645 = SURFACE_CURVE('',#646,(#651,#658),.PCURVE_S1.);
#646 = CIRCLE('',#647,1.65);
#647 = AXIS2_PLACEMENT_3D('',#648,#649,#650);
#648 = CARTESIAN_POINT('',(11.840830674051,-11.84083067405,0.));
#649 = DIRECTION('',(0.,0.,1.));
#650 = DIRECTION('',(1.,0.,-0.));
#651 = PCURVE('',#248,#652);
#652 = DEFINITIONAL_REPRESENTATION('',(#653),#657);
#653 = CIRCLE('',#654,1.65);
#654 = AXIS2_PLACEMENT_2D('',#655,#656);
#655 = CARTESIAN_POINT('',(11.840830674051,-11.84083067405));
#656 = DIRECTION('',(1.,0.));
#657 = ( GEOMETRIC_REPRESENTATION_CONTEXT(2) 
PARAMETRIC_REPRESENTATION_CONTEXT() REPRESENTATION_CONTEXT('2D SPACE',''
  ) );
#658 = PCURVE('',#481,#659);
#659 = DEFINITIONAL_REPRESENTATION('',(#660),#664);
#660 = LINE('',#661,#662);
#661 = CARTESIAN_POINT('',(0.,4.));
#662 = VECTOR('',#663,1.);
#663 = DIRECTION('',(1.,0.));
#664 = ( GEOMETRIC_REPRESENTATION_CONTEXT(2) 
PARAMETRIC_REPRESENTATION_CONTEXT() REPRESENTATION_CONTEXT('2D SPACE',''
  ) );
#665 = FACE_BOUND('',#666,.T.);
#666 = EDGE_LOOP('',(#667));
#667 = ORIENTED_EDGE('',*,*,#668,.T.);
#668 = EDGE_CURVE('',#669,#669,#671,.T.);
#669 = VERTEX_POINT('',#670);
#670 = CARTESIAN_POINT('',(-10.19083067405,-11.84083067405,0.));
#671 = SURFACE_CURVE('',#672,(#677,#684),.PCURVE_S1.);
#672 = CIRCLE('',#673,1.65);
#673 = AXIS2_PLACEMENT_3D('',#674,#675,#676);
#674 = CARTESIAN_POINT('',(-11.84083067405,-11.84083067405,0.));
#675 = DIRECTION('',(0.,0.,1.));
#676 = DIRECTION('',(1.,0.,-0.));
#677 = PCURVE('',#248,#678);
#678 = DEFINITIONAL_REPRESENTATION('',(#679),#683);
#679 = CIRCLE('',#680,1.65);
#680 = AXIS2_PLACEMENT_2D('',#681,#682);
#681 = CARTESIAN_POINT('',(-11.84083067405,-11.84083067405));
#682 = DIRECTION('',(1.,0.));
#683 = ( GEOMETRIC_REPRESENTATION_CONTEXT(2) 
PARAMETRIC_REPRESENTATION_CONTEXT() REPRESENTATION_CONTEXT('2D SPACE',''
  ) );
#684 = PCURVE('',#512,#685);
#685 = DEFINITIONAL_REPRESENTATION('',(#686),#690);
#686 = LINE('',#687,#688);
#687 = CARTESIAN_POINT('',(0.,4.));
#688 = VECTOR('',#689,1.);
#689 = DIRECTION('',(1.,0.));
#690 = ( GEOMETRIC_REPRESENTATION_CONTEXT(2) 
PARAMETRIC_REPRESENTATION_CONTEXT() REPRESENTATION_CONTEXT('2D SPACE',''
  ) );
#691 = FACE_BOUND('',#692,.T.);
#692 = EDGE_LOOP('',(#693));
#693 = ORIENTED_EDGE('',*,*,#694,.T.);
#694 = EDGE_CURVE('',#695,#695,#697,.T.);
#695 = VERTEX_POINT('',#696);
#696 = CARTESIAN_POINT('',(-10.19083067405,11.840830674051,0.));
#697 = SURFACE_CURVE('',#698,(#703,#710),.PCURVE_S1.);
#698 = CIRCLE('',#699,1.65);
#699 = AXIS2_PLACEMENT_3D('',#700,#701,#702);
#700 = CARTESIAN_POINT('',(-11.84083067405,11.840830674051,0.));
#701 = DIRECTION('',(0.,0.,1.));
#702 = DIRECTION('',(1.,0.,-0.));
#703 = PCURVE('',#248,#704);
#704 = DEFINITIONAL_REPRESENTATION('',(#705),#709);
#705 = CIRCLE('',#706,1.65);
#706 = AXIS2_PLACEMENT_2D('',#707,#708);
#707 = CARTESIAN_POINT('',(-11.84083067405,11.840830674051));
#708 = DIRECTION('',(1.,0.));
#709 = ( GEOMETRIC_REPRESENTATION_CONTEXT(2) 
PARAMETRIC_REPRESENTATION_CONTEXT() REPRESENTATION_CONTEXT('2D SPACE',''
  ) );
#710 = PCURVE('',#543,#711);
#711 = DEFINITIONAL_REPRESENTATION('',(#712),#716);
#712 = LINE('',#713,#714);
#713 = CARTESIAN_POINT('',(0.,4.));
#714 = VECTOR('',#715,1.);
#715 = DIRECTION('',(1.,0.));
#716 = ( GEOMETRIC_REPRESENTATION_CONTEXT(2) 
PARAMETRIC_REPRESENTATION_CONTEXT() REPRESENTATION_CONTEXT('2D SPACE',''
  ) );
#717 = FACE_BOUND('',#718,.T.);
#718 = EDGE_LOOP('',(#719));
#719 = ORIENTED_EDGE('',*,*,#720,.T.);
#720 = EDGE_CURVE('',#721,#721,#723,.T.);
#721 = VERTEX_POINT('',#722);
#722 = CARTESIAN_POINT('',(13.490830674051,11.840830674051,0.));
#723 = SURFACE_CURVE('',#724,(#729,#736),.PCURVE_S1.);
#724 = CIRCLE('',#725,1.65);
#725 = AXIS2_PLACEMENT_3D('',#726,#727,#728);
#726 = CARTESIAN_POINT('',(11.840830674051,11.840830674051,0.));
#727 = DIRECTION('',(0.,0.,1.));
#728 = DIRECTION('',(1.,0.,-0.));
#729 = PCURVE('',#248,#730);
#730 = DEFINITIONAL_REPRESENTATION('',(#731),#735);
#731 = CIRCLE('',#732,1.65);
#732 = AXIS2_PLACEMENT_2D('',#733,#734);
#733 = CARTESIAN_POINT('',(11.840830674051,11.840830674051));
#734 = DIRECTION('',(1.,0.));
#735 = ( GEOMETRIC_REPRESENTATION_CONTEXT(2) 
PARAMETRIC_REPRESENTATION_CONTEXT() REPRESENTATION_CONTEXT('2D SPACE',''
  ) );
#736 = PCURVE('',#574,#737);
#737 = DEFINITIONAL_REPRESENTATION('',(#738),#742);
#738 = LINE('',#739,#740);
#739 = CARTESIAN_POINT('',(0.,4.));
#740 = VECTOR('',#741,1.);
#741 = DIRECTION('',(1.,0.));
#742 = ( GEOMETRIC_REPRESENTATION_CONTEXT(2) 
PARAMETRIC_REPRESENTATION_CONTEXT() REPRESENTATION_CONTEXT('2D SPACE',''
  ) );
#743 = FACE_BOUND('',#744,.T.);
#744 = EDGE_LOOP('',(#745));
#745 = ORIENTED_EDGE('',*,*,#746,.F.);
#746 = EDGE_CURVE('',#747,#747,#749,.T.);
#747 = VERTEX_POINT('',#748);
#748 = CARTESIAN_POINT('',(-10.94083067405,-1.E-15,0.));
#749 = SURFACE_CURVE('',#750,(#755,#766),.PCURVE_S1.);
#750 = CIRCLE('',#751,10.940830674051);
#751 = AXIS2_PLACEMENT_3D('',#752,#753,#754);
#752 = CARTESIAN_POINT('',(0.,-6.6E-16,0.));
#753 = DIRECTION('',(0.,0.,-1.));
#754 = DIRECTION('',(-1.,0.,0.));
#755 = PCURVE('',#248,#756);
#756 = DEFINITIONAL_REPRESENTATION('',(#757),#765);
#757 = ( BOUNDED_CURVE() B_SPLINE_CURVE(2,(#758,#759,#760,#761,#762,#763
,#764),.UNSPECIFIED.,.T.,.F.) B_SPLINE_CURVE_WITH_KNOTS((1,2,2,2,2,1),(
    -2.094395102393,0.,2.094395102393,4.188790204786,6.28318530718,
8.377580409573),.UNSPECIFIED.) CURVE() GEOMETRIC_REPRESENTATION_ITEM() 
RATIONAL_B_SPLINE_CURVE((1.,0.5,1.,0.5,1.,0.5,1.)) REPRESENTATION_ITEM(
  '') );
#758 = CARTESIAN_POINT('',(-10.94083067405,-6.6E-16));
#759 = CARTESIAN_POINT('',(-10.94083067405,18.950074604465));
#760 = CARTESIAN_POINT('',(5.470415337026,9.475037302232));
#761 = CARTESIAN_POINT('',(21.881661348103,2.019730652998E-15));
#762 = CARTESIAN_POINT('',(5.470415337026,-9.475037302232));
#763 = CARTESIAN_POINT('',(-10.94083067405,-18.95007460446));
#764 = CARTESIAN_POINT('',(-10.94083067405,-6.6E-16));
#765 = ( GEOMETRIC_REPRESENTATION_CONTEXT(2) 
PARAMETRIC_REPRESENTATION_CONTEXT() REPRESENTATION_CONTEXT('2D SPACE',''
  ) );
#766 = PCURVE('',#767,#772);
#767 = CYLINDRICAL_SURFACE('',#768,10.940830674051);
#768 = AXIS2_PLACEMENT_3D('',#769,#770,#771);
#769 = CARTESIAN_POINT('',(0.,-6.6E-16,0.5));
#770 = DIRECTION('',(0.,0.,-1.));
#771 = DIRECTION('',(-1.,0.,0.));
#772 = DEFINITIONAL_REPRESENTATION('',(#773),#777);
#773 = LINE('',#774,#775);
#774 = CARTESIAN_POINT('',(0.,0.5));
#775 = VECTOR('',#776,1.);
#776 = DIRECTION('',(1.,0.));
#777 = ( GEOMETRIC_REPRESENTATION_CONTEXT(2) 
PARAMETRIC_REPRESENTATION_CONTEXT() REPRESENTATION_CONTEXT('2D SPACE',''
  ) );
#778 = FACE_BOUND('',#779,.T.);
#779 = EDGE_LOOP('',(#780,#781,#782,#783));
#780 = ORIENTED_EDGE('',*,*,#615,.T.);
#781 = ORIENTED_EDGE('',*,*,#393,.T.);
#782 = ORIENTED_EDGE('',*,*,#318,.F.);
#783 = ORIENTED_EDGE('',*,*,#232,.F.);
#784 = ADVANCED_FACE('',(#785),#767,.F.);
#785 = FACE_BOUND('',#786,.F.);
#786 = EDGE_LOOP('',(#787,#811,#831,#832));
#787 = ORIENTED_EDGE('',*,*,#788,.T.);
#788 = EDGE_CURVE('',#789,#789,#791,.T.);
#789 = VERTEX_POINT('',#790);
#790 = CARTESIAN_POINT('',(-10.94083067405,-1.E-15,0.5));
#791 = SURFACE_CURVE('',#792,(#797,#804),.PCURVE_S1.);
#792 = CIRCLE('',#793,10.940830674051);
#793 = AXIS2_PLACEMENT_3D('',#794,#795,#796);
#794 = CARTESIAN_POINT('',(0.,-6.6E-16,0.5));
#795 = DIRECTION('',(0.,0.,-1.));
#796 = DIRECTION('',(-1.,0.,0.));
#797 = PCURVE('',#767,#798);
#798 = DEFINITIONAL_REPRESENTATION('',(#799),#803);
#799 = LINE('',#800,#801);
#800 = CARTESIAN_POINT('',(0.,0.));
#801 = VECTOR('',#802,1.);
#802 = DIRECTION('',(1.,0.));
#803 = ( GEOMETRIC_REPRESENTATION_CONTEXT(2) 
PARAMETRIC_REPRESENTATION_CONTEXT() REPRESENTATION_CONTEXT('2D SPACE',''
  ) );
#804 = PCURVE('',#43,#805);
#805 = DEFINITIONAL_REPRESENTATION('',(#806),#810);
#806 = CIRCLE('',#807,10.940830674051);
#807 = AXIS2_PLACEMENT_2D('',#808,#809);
#808 = CARTESIAN_POINT('',(0.,6.6E-16));
#809 = DIRECTION('',(-1.,0.));
#810 = ( GEOMETRIC_REPRESENTATION_CONTEXT(2) 
PARAMETRIC_REPRESENTATION_CONTEXT() REPRESENTATION_CONTEXT('2D SPACE',''
  ) );
#811 = ORIENTED_EDGE('',*,*,#812,.T.);
#812 = EDGE_CURVE('',#789,#747,#813,.T.);
#813 = SEAM_CURVE('',#814,(#817,#824),.PCURVE_S1.);
#814 = B_SPLINE_CURVE_WITH_KNOTS('',1,(#815,#816),.UNSPECIFIED.,.F.,.F.,
  (2,2),(0.,0.5),.PIECEWISE_BEZIER_KNOTS.);
#815 = CARTESIAN_POINT('',(-10.94083067405,-6.6E-16,0.5));
#816 = CARTESIAN_POINT('',(-10.94083067405,-6.6E-16,0.));
#817 = PCURVE('',#767,#818);
#818 = DEFINITIONAL_REPRESENTATION('',(#819),#823);
#819 = LINE('',#820,#821);
#820 = CARTESIAN_POINT('',(6.28318530718,0.));
#821 = VECTOR('',#822,1.);
#822 = DIRECTION('',(0.,1.));
#823 = ( GEOMETRIC_REPRESENTATION_CONTEXT(2) 
PARAMETRIC_REPRESENTATION_CONTEXT() REPRESENTATION_CONTEXT('2D SPACE',''
  ) );
#824 = PCURVE('',#767,#825);
#825 = DEFINITIONAL_REPRESENTATION('',(#826),#830);
#826 = LINE('',#827,#828);
#827 = CARTESIAN_POINT('',(0.,0.));
#828 = VECTOR('',#829,1.);
#829 = DIRECTION('',(0.,1.));
#830 = ( GEOMETRIC_REPRESENTATION_CONTEXT(2) 
PARAMETRIC_REPRESENTATION_CONTEXT() REPRESENTATION_CONTEXT('2D SPACE',''
  ) );
#831 = ORIENTED_EDGE('',*,*,#746,.F.);
#832 = ORIENTED_EDGE('',*,*,#812,.F.);
#833 = ADVANCED_FACE('',(#834,#837),#43,.T.);
#834 = FACE_BOUND('',#835,.T.);
#835 = EDGE_LOOP('',(#836));
#836 = ORIENTED_EDGE('',*,*,#21,.T.);
#837 = FACE_BOUND('',#838,.T.);
#838 = EDGE_LOOP('',(#839));
#839 = ORIENTED_EDGE('',*,*,#788,.T.);
#840 = ADVANCED_FACE('',(#841),#871,.T.);
#841 = FACE_BOUND('',#842,.T.);
#842 = EDGE_LOOP('',(#843,#887,#914,#941,#942));
#843 = ORIENTED_EDGE('',*,*,#844,.F.);
#844 = EDGE_CURVE('',#845,#847,#849,.T.);
#845 = VERTEX_POINT('',#846);
#846 = CARTESIAN_POINT('',(-9.130581216938,0.,2.302924317388));
#847 = VERTEX_POINT('',#848);
#848 = CARTESIAN_POINT('',(9.130689763411,-2.1E-14,2.302924317388));
#849 = SURFACE_CURVE('',#850,(#870,#881),.PCURVE_S1.);
#850 = B_SPLINE_CURVE_WITH_KNOTS('',3,(#851,#852,#853,#854,#855,#856,
    #857,#858,#859,#860,#861,#862,#863,#864,#865,#866,#867,#868,#869),
  .UNSPECIFIED.,.T.,.F.,(1,1,1,1,1,1,1,1,1,1,1,1,1,1,1,1,1,1,1,1,1,1,1),
  (-0.1875,-0.125,-6.25E-02,-6.7E-16,6.25E-02,0.125,0.1875,0.25,0.3125,
    0.375,0.4375,0.5,0.5625,0.625,0.6875,0.75,0.8125,0.875,0.9375,1.,
    1.0625,1.125,1.1875),.UNSPECIFIED.);
#851 = CARTESIAN_POINT('',(8.655168941604,-3.585088360243,2.302924317388
    ));
#852 = CARTESIAN_POINT('',(9.368287354605,-5.96E-15,2.302924317388));
#853 = CARTESIAN_POINT('',(8.655168941604,3.585088360243,2.302924317388)
  );
#854 = CARTESIAN_POINT('',(6.624379516545,6.624379516545,2.302924317388)
  );
#855 = CARTESIAN_POINT('',(3.585088360243,8.655168941604,2.302924317388)
  );
#856 = CARTESIAN_POINT('',(4.561E-14,9.368287354605,2.302924317388));
#857 = CARTESIAN_POINT('',(-3.585088360243,8.655168941604,2.302924317388
    ));
#858 = CARTESIAN_POINT('',(-6.624379516545,6.624379516545,2.302924317388
    ));
#859 = CARTESIAN_POINT('',(-8.655168941604,3.585088360243,2.302924317388
    ));
#860 = CARTESIAN_POINT('',(-9.368287354605,3.643E-14,2.302924317388));
#861 = CARTESIAN_POINT('',(-8.655168941604,-3.585088360243,
    2.302924317388));
#862 = CARTESIAN_POINT('',(-6.624379516545,-6.624379516545,
    2.302924317388));
#863 = CARTESIAN_POINT('',(-3.585088360243,-8.655168941604,
    2.302924317388));
#864 = CARTESIAN_POINT('',(-2.92E-14,-9.368287354605,2.302924317388));
#865 = CARTESIAN_POINT('',(3.585088360243,-8.655168941604,2.302924317388
    ));
#866 = CARTESIAN_POINT('',(6.624379516545,-6.624379516545,2.302924317388
    ));
#867 = CARTESIAN_POINT('',(8.655168941604,-3.585088360243,2.302924317388
    ));
#868 = CARTESIAN_POINT('',(9.368287354605,-5.96E-15,2.302924317388));
#869 = CARTESIAN_POINT('',(8.655168941604,3.585088360243,2.302924317388)
  );
#870 = PCURVE('',#871,#876);
#871 = TOROIDAL_SURFACE('',#872,8.770929022243,0.855298747577);
#872 = AXIS2_PLACEMENT_3D('',#873,#874,#875);
#873 = CARTESIAN_POINT('',(0.,0.,3.078930919459));
#874 = DIRECTION('',(0.,0.,-1.));
#875 = DIRECTION('',(-1.,0.,0.));
#876 = DEFINITIONAL_REPRESENTATION('',(#877),#880);
#877 = B_SPLINE_CURVE_WITH_KNOTS('',1,(#878,#879),.UNSPECIFIED.,.F.,.F.,
  (2,2),(-6.7E-16,1.),.PIECEWISE_BEZIER_KNOTS.);
#878 = CARTESIAN_POINT('',(9.424777960769,7.419986490783));
#879 = CARTESIAN_POINT('',(3.14159265359,7.419986490783));
#880 = ( GEOMETRIC_REPRESENTATION_CONTEXT(2) 
PARAMETRIC_REPRESENTATION_CONTEXT() REPRESENTATION_CONTEXT('2D SPACE',''
  ) );
#881 = PCURVE('',#110,#882);
#882 = DEFINITIONAL_REPRESENTATION('',(#883),#886);
#883 = B_SPLINE_CURVE_WITH_KNOTS('',1,(#884,#885),.UNSPECIFIED.,.F.,.F.,
  (2,2),(0.5,1.),.PIECEWISE_BEZIER_KNOTS.);
#884 = CARTESIAN_POINT('',(-2.55E-15,6.28318530718));
#885 = CARTESIAN_POINT('',(-6.289832549942E-05,9.424777960769));
#886 = ( GEOMETRIC_REPRESENTATION_CONTEXT(2) 
PARAMETRIC_REPRESENTATION_CONTEXT() REPRESENTATION_CONTEXT('2D SPACE',''
  ) );
#887 = ORIENTED_EDGE('',*,*,#888,.T.);
#888 = EDGE_CURVE('',#845,#889,#891,.T.);
#889 = VERTEX_POINT('',#890);
#890 = CARTESIAN_POINT('',(-8.004404043518,0.,2.699490008911));
#891 = SEAM_CURVE('',#892,(#900,#907),.PCURVE_S1.);
#892 = ( BOUNDED_CURVE() B_SPLINE_CURVE(6,(#893,#894,#895,#896,#897,#898
,#899),.UNSPECIFIED.,.F.,.F.) B_SPLINE_CURVE_WITH_KNOTS((7,7),(
1.136801183604,2.681941464684),.PIECEWISE_BEZIER_KNOTS.) CURVE() 
GEOMETRIC_REPRESENTATION_ITEM() RATIONAL_B_SPLINE_CURVE((1.030358839555,
    1.009709020567,0.997991963327,0.994150758714,0.997991963327,
1.009709020567,1.030358839555)) REPRESENTATION_ITEM('') );
#893 = CARTESIAN_POINT('',(-9.130581216938,0.,2.302924317388));
#894 = CARTESIAN_POINT('',(-8.926655243865,0.,2.20841168879));
#895 = CARTESIAN_POINT('',(-8.698311117458,0.,2.180035883226));
#896 = CARTESIAN_POINT('',(-8.469442355954,0.,2.222761540911));
#897 = CARTESIAN_POINT('',(-8.264300024027,0.,2.332866106975));
#898 = CARTESIAN_POINT('',(-8.104116928306,0.,2.498055701839));
#899 = CARTESIAN_POINT('',(-8.004404043518,0.,2.699490008911));
#900 = PCURVE('',#871,#901);
#901 = DEFINITIONAL_REPRESENTATION('',(#902),#906);
#902 = LINE('',#903,#904);
#903 = CARTESIAN_POINT('',(6.28318530718,6.28318530718));
#904 = VECTOR('',#905,1.);
#905 = DIRECTION('',(0.,1.));
#906 = ( GEOMETRIC_REPRESENTATION_CONTEXT(2) 
PARAMETRIC_REPRESENTATION_CONTEXT() REPRESENTATION_CONTEXT('2D SPACE',''
  ) );
#907 = PCURVE('',#871,#908);
#908 = DEFINITIONAL_REPRESENTATION('',(#909),#913);
#909 = LINE('',#910,#911);
#910 = CARTESIAN_POINT('',(0.,6.28318530718));
#911 = VECTOR('',#912,1.);
#912 = DIRECTION('',(0.,1.));
#913 = ( GEOMETRIC_REPRESENTATION_CONTEXT(2) 
PARAMETRIC_REPRESENTATION_CONTEXT() REPRESENTATION_CONTEXT('2D SPACE',''
  ) );
#914 = ORIENTED_EDGE('',*,*,#915,.F.);
#915 = EDGE_CURVE('',#889,#889,#916,.T.);
#916 = SURFACE_CURVE('',#917,(#922,#929),.PCURVE_S1.);
#917 = CIRCLE('',#918,8.004404043518);
#918 = AXIS2_PLACEMENT_3D('',#919,#920,#921);
#919 = CARTESIAN_POINT('',(0.,0.,2.699490008911));
#920 = DIRECTION('',(0.,0.,-1.));
#921 = DIRECTION('',(-1.,0.,0.));
#922 = PCURVE('',#871,#923);
#923 = DEFINITIONAL_REPRESENTATION('',(#924),#928);
#924 = LINE('',#925,#926);
#925 = CARTESIAN_POINT('',(0.,8.965126771864));
#926 = VECTOR('',#927,1.);
#927 = DIRECTION('',(1.,0.));
#928 = ( GEOMETRIC_REPRESENTATION_CONTEXT(2) 
PARAMETRIC_REPRESENTATION_CONTEXT() REPRESENTATION_CONTEXT('2D SPACE',''
  ) );
#929 = PCURVE('',#930,#935);
#930 = TOROIDAL_SURFACE('',#931,7.237879064793,0.855298747577);
#931 = AXIS2_PLACEMENT_3D('',#932,#933,#934);
#932 = CARTESIAN_POINT('',(0.,0.,2.320049098362));
#933 = DIRECTION('',(0.,0.,-1.));
#934 = DIRECTION('',(-1.,0.,0.));
#935 = DEFINITIONAL_REPRESENTATION('',(#936),#940);
#936 = LINE('',#937,#938);
#937 = CARTESIAN_POINT('',(0.,5.823534118274));
#938 = VECTOR('',#939,1.);
#939 = DIRECTION('',(1.,0.));
#940 = ( GEOMETRIC_REPRESENTATION_CONTEXT(2) 
PARAMETRIC_REPRESENTATION_CONTEXT() REPRESENTATION_CONTEXT('2D SPACE',''
  ) );
#941 = ORIENTED_EDGE('',*,*,#888,.F.);
#942 = ORIENTED_EDGE('',*,*,#943,.F.);
#943 = EDGE_CURVE('',#847,#845,#944,.T.);
#944 = SURFACE_CURVE('',#945,(#965,#971),.PCURVE_S1.);
#945 = B_SPLINE_CURVE_WITH_KNOTS('',3,(#946,#947,#948,#949,#950,#951,
    #952,#953,#954,#955,#956,#957,#958,#959,#960,#961,#962,#963,#964),
  .UNSPECIFIED.,.T.,.F.,(1,1,1,1,1,1,1,1,1,1,1,1,1,1,1,1,1,1,1,1,1,1,1),
  (-0.1875,-0.125,-6.25E-02,-6.7E-16,6.25E-02,0.125,0.1875,0.25,0.3125,
    0.375,0.4375,0.5,0.5625,0.625,0.6875,0.75,0.8125,0.875,0.9375,1.,
    1.0625,1.125,1.1875),.UNSPECIFIED.);
#946 = CARTESIAN_POINT('',(8.655168941604,-3.585088360243,2.302924317388
    ));
#947 = CARTESIAN_POINT('',(9.368287354605,-5.96E-15,2.302924317388));
#948 = CARTESIAN_POINT('',(8.655168941604,3.585088360243,2.302924317388)
  );
#949 = CARTESIAN_POINT('',(6.624379516545,6.624379516545,2.302924317388)
  );
#950 = CARTESIAN_POINT('',(3.585088360243,8.655168941604,2.302924317388)
  );
#951 = CARTESIAN_POINT('',(4.561E-14,9.368287354605,2.302924317388));
#952 = CARTESIAN_POINT('',(-3.585088360243,8.655168941604,2.302924317388
    ));
#953 = CARTESIAN_POINT('',(-6.624379516545,6.624379516545,2.302924317388
    ));
#954 = CARTESIAN_POINT('',(-8.655168941604,3.585088360243,2.302924317388
    ));
#955 = CARTESIAN_POINT('',(-9.368287354605,3.643E-14,2.302924317388));
#956 = CARTESIAN_POINT('',(-8.655168941604,-3.585088360243,
    2.302924317388));
#957 = CARTESIAN_POINT('',(-6.624379516545,-6.624379516545,
    2.302924317388));
#958 = CARTESIAN_POINT('',(-3.585088360243,-8.655168941604,
    2.302924317388));
#959 = CARTESIAN_POINT('',(-2.92E-14,-9.368287354605,2.302924317388));
#960 = CARTESIAN_POINT('',(3.585088360243,-8.655168941604,2.302924317388
    ));
#961 = CARTESIAN_POINT('',(6.624379516545,-6.624379516545,2.302924317388
    ));
#962 = CARTESIAN_POINT('',(8.655168941604,-3.585088360243,2.302924317388
    ));
#963 = CARTESIAN_POINT('',(9.368287354605,-5.96E-15,2.302924317388));
#964 = CARTESIAN_POINT('',(8.655168941604,3.585088360243,2.302924317388)
  );
#965 = PCURVE('',#871,#966);
#966 = DEFINITIONAL_REPRESENTATION('',(#967),#970);
#967 = B_SPLINE_CURVE_WITH_KNOTS('',1,(#968,#969),.UNSPECIFIED.,.F.,.F.,
  (2,2),(-6.7E-16,1.),.PIECEWISE_BEZIER_KNOTS.);
#968 = CARTESIAN_POINT('',(3.14159265359,7.419986490783));
#969 = CARTESIAN_POINT('',(-3.14159265359,7.419986490783));
#970 = ( GEOMETRIC_REPRESENTATION_CONTEXT(2) 
PARAMETRIC_REPRESENTATION_CONTEXT() REPRESENTATION_CONTEXT('2D SPACE',''
  ) );
#971 = PCURVE('',#110,#972);
#972 = DEFINITIONAL_REPRESENTATION('',(#973),#976);
#973 = B_SPLINE_CURVE_WITH_KNOTS('',1,(#974,#975),.UNSPECIFIED.,.F.,.F.,
  (2,2),(-6.7E-16,0.5),.PIECEWISE_BEZIER_KNOTS.);
#974 = CARTESIAN_POINT('',(-6.289832549942E-05,3.14159265359));
#975 = CARTESIAN_POINT('',(-3.1E-15,6.28318530718));
#976 = ( GEOMETRIC_REPRESENTATION_CONTEXT(2) 
PARAMETRIC_REPRESENTATION_CONTEXT() REPRESENTATION_CONTEXT('2D SPACE',''
  ) );
#977 = ADVANCED_FACE('',(#978),#930,.F.);
#978 = FACE_BOUND('',#979,.F.);
#979 = EDGE_LOOP('',(#980,#1009,#1034,#1035));
#980 = ORIENTED_EDGE('',*,*,#981,.T.);
#981 = EDGE_CURVE('',#982,#982,#984,.T.);
#982 = VERTEX_POINT('',#983);
#983 = CARTESIAN_POINT('',(-7.43027941984,0.,3.153426594449));
#984 = SURFACE_CURVE('',#985,(#990,#997),.PCURVE_S1.);
#985 = CIRCLE('',#986,7.43027941984);
#986 = AXIS2_PLACEMENT_3D('',#987,#988,#989);
#987 = CARTESIAN_POINT('',(0.,0.,3.153426594449));
#988 = DIRECTION('',(0.,0.,-1.));
#989 = DIRECTION('',(-1.,0.,0.));
#990 = PCURVE('',#930,#991);
#991 = DEFINITIONAL_REPRESENTATION('',(#992),#996);
#992 = LINE('',#993,#994);
#993 = CARTESIAN_POINT('',(0.,4.939281783144));
#994 = VECTOR('',#995,1.);
#995 = DIRECTION('',(1.,0.));
#996 = ( GEOMETRIC_REPRESENTATION_CONTEXT(2) 
PARAMETRIC_REPRESENTATION_CONTEXT() REPRESENTATION_CONTEXT('2D SPACE',''
  ) );
#997 = PCURVE('',#998,#1003);
#998 = TOROIDAL_SURFACE('',#999,7.29483508624,0.602105795837);
#999 = AXIS2_PLACEMENT_3D('',#1000,#1001,#1002);
#1000 = CARTESIAN_POINT('',(0.,0.,2.566752731152));
#1001 = DIRECTION('',(0.,0.,-1.));
#1002 = DIRECTION('',(-1.,0.,0.));
#1003 = DEFINITIONAL_REPRESENTATION('',(#1004),#1008);
#1004 = LINE('',#1005,#1006);
#1005 = CARTESIAN_POINT('',(0.,4.939281783144));
#1006 = VECTOR('',#1007,1.);
#1007 = DIRECTION('',(1.,0.));
#1008 = ( GEOMETRIC_REPRESENTATION_CONTEXT(2) 
PARAMETRIC_REPRESENTATION_CONTEXT() REPRESENTATION_CONTEXT('2D SPACE',''
  ) );
#1009 = ORIENTED_EDGE('',*,*,#1010,.T.);
#1010 = EDGE_CURVE('',#982,#889,#1011,.T.);
#1011 = SEAM_CURVE('',#1012,(#1020,#1027),.PCURVE_S1.);
#1012 = ( BOUNDED_CURVE() B_SPLINE_CURVE(6,(#1013,#1014,#1015,#1016,
#1017,#1018,#1019),.UNSPECIFIED.,.F.,.F.) B_SPLINE_CURVE_WITH_KNOTS((7,7
),(4.939281783144,5.823534118274),.PIECEWISE_BEZIER_KNOTS.) CURVE() 
GEOMETRIC_REPRESENTATION_ITEM() RATIONAL_B_SPLINE_CURVE((1.009828597128,
    1.003233227399,0.999345315019,0.998059231319,0.999345315019,
1.003233227399,1.009828597128)) REPRESENTATION_ITEM('') );
#1013 = CARTESIAN_POINT('',(-7.43027941984,0.,3.153426594449));
#1014 = CARTESIAN_POINT('',(-7.553906162755,0.,3.124885111938));
#1015 = CARTESIAN_POINT('',(-7.671482337738,0.,3.074622152388));
#1016 = CARTESIAN_POINT('',(-7.778807573688,0.,3.004198352905));
#1017 = CARTESIAN_POINT('',(-7.872088210421,0.,2.916011388924));
#1018 = CARTESIAN_POINT('',(-7.948116173831,0.,2.813199566617));
#1019 = CARTESIAN_POINT('',(-8.004404043518,0.,2.699490008911));
#1020 = PCURVE('',#930,#1021);
#1021 = DEFINITIONAL_REPRESENTATION('',(#1022),#1026);
#1022 = LINE('',#1023,#1024);
#1023 = CARTESIAN_POINT('',(6.28318530718,0.));
#1024 = VECTOR('',#1025,1.);
#1025 = DIRECTION('',(0.,1.));
#1026 = ( GEOMETRIC_REPRESENTATION_CONTEXT(2) 
PARAMETRIC_REPRESENTATION_CONTEXT() REPRESENTATION_CONTEXT('2D SPACE',''
  ) );
#1027 = PCURVE('',#930,#1028);
#1028 = DEFINITIONAL_REPRESENTATION('',(#1029),#1033);
#1029 = LINE('',#1030,#1031);
#1030 = CARTESIAN_POINT('',(0.,0.));
#1031 = VECTOR('',#1032,1.);
#1032 = DIRECTION('',(0.,1.));
#1033 = ( GEOMETRIC_REPRESENTATION_CONTEXT(2) 
PARAMETRIC_REPRESENTATION_CONTEXT() REPRESENTATION_CONTEXT('2D SPACE',''
  ) );
#1034 = ORIENTED_EDGE('',*,*,#915,.F.);
#1035 = ORIENTED_EDGE('',*,*,#1010,.F.);
#1036 = ADVANCED_FACE('',(#1037),#998,.F.);
#1037 = FACE_BOUND('',#1038,.F.);
#1038 = EDGE_LOOP('',(#1039,#1068,#1093,#1094));
#1039 = ORIENTED_EDGE('',*,*,#1040,.T.);
#1040 = EDGE_CURVE('',#1041,#1041,#1043,.T.);
#1041 = VERTEX_POINT('',#1042);
#1042 = CARTESIAN_POINT('',(-6.891969067233,0.,3.014223802966));
#1043 = SURFACE_CURVE('',#1044,(#1049,#1056),.PCURVE_S1.);
#1044 = CIRCLE('',#1045,6.891969067233);
#1045 = AXIS2_PLACEMENT_3D('',#1046,#1047,#1048);
#1046 = CARTESIAN_POINT('',(0.,0.,3.014223802966));
#1047 = DIRECTION('',(0.,0.,-1.));
#1048 = DIRECTION('',(-1.,0.,0.));
#1049 = PCURVE('',#998,#1050);
#1050 = DEFINITIONAL_REPRESENTATION('',(#1051),#1055);
#1051 = LINE('',#1052,#1053);
#1052 = CARTESIAN_POINT('',(0.,3.979398513761));
#1053 = VECTOR('',#1054,1.);
#1054 = DIRECTION('',(1.,0.));
#1055 = ( GEOMETRIC_REPRESENTATION_CONTEXT(2) 
PARAMETRIC_REPRESENTATION_CONTEXT() REPRESENTATION_CONTEXT('2D SPACE',''
  ) );
#1056 = PCURVE('',#1057,#1062);
#1057 = TOROIDAL_SURFACE('',#1058,6.319692892714,0.855298747577);
#1058 = AXIS2_PLACEMENT_3D('',#1059,#1060,#1061);
#1059 = CARTESIAN_POINT('',(0.,0.,3.649862007989));
#1060 = DIRECTION('',(0.,0.,-1.));
#1061 = DIRECTION('',(-1.,0.,0.));
#1062 = DEFINITIONAL_REPRESENTATION('',(#1063),#1067);
#1063 = LINE('',#1064,#1065);
#1064 = CARTESIAN_POINT('',(0.,7.120991167351));
#1065 = VECTOR('',#1066,1.);
#1066 = DIRECTION('',(1.,0.));
#1067 = ( GEOMETRIC_REPRESENTATION_CONTEXT(2) 
PARAMETRIC_REPRESENTATION_CONTEXT() REPRESENTATION_CONTEXT('2D SPACE',''
  ) );
#1068 = ORIENTED_EDGE('',*,*,#1069,.T.);
#1069 = EDGE_CURVE('',#1041,#982,#1070,.T.);
#1070 = SEAM_CURVE('',#1071,(#1079,#1086),.PCURVE_S1.);
#1071 = ( BOUNDED_CURVE() B_SPLINE_CURVE(6,(#1072,#1073,#1074,#1075,
#1076,#1077,#1078),.UNSPECIFIED.,.F.,.F.) B_SPLINE_CURVE_WITH_KNOTS((7,7
),(3.979398513761,4.939281783144),.PIECEWISE_BEZIER_KNOTS.) CURVE() 
GEOMETRIC_REPRESENTATION_ITEM() RATIONAL_B_SPLINE_CURVE((1.011593377811,
    1.003804661893,0.999228016444,0.997715840417,0.999228016444,
1.003804661893,1.011593377811)) REPRESENTATION_ITEM('') );
#1072 = CARTESIAN_POINT('',(-6.891969067233,0.,3.014223802966));
#1073 = CARTESIAN_POINT('',(-6.964111170632,0.,3.07917459829));
#1074 = CARTESIAN_POINT('',(-7.04810114501,0.,3.129601702829));
#1075 = CARTESIAN_POINT('',(-7.140586564929,0.,3.163246343178));
#1076 = CARTESIAN_POINT('',(-7.237788117981,0.,3.178653250914));
#1077 = CARTESIAN_POINT('',(-7.335694788177,0.,3.175263177269));
#1078 = CARTESIAN_POINT('',(-7.43027941984,0.,3.153426594449));
#1079 = PCURVE('',#998,#1080);
#1080 = DEFINITIONAL_REPRESENTATION('',(#1081),#1085);
#1081 = LINE('',#1082,#1083);
#1082 = CARTESIAN_POINT('',(6.28318530718,0.));
#1083 = VECTOR('',#1084,1.);
#1084 = DIRECTION('',(0.,1.));
#1085 = ( GEOMETRIC_REPRESENTATION_CONTEXT(2) 
PARAMETRIC_REPRESENTATION_CONTEXT() REPRESENTATION_CONTEXT('2D SPACE',''
  ) );
#1086 = PCURVE('',#998,#1087);
#1087 = DEFINITIONAL_REPRESENTATION('',(#1088),#1092);
#1088 = LINE('',#1089,#1090);
#1089 = CARTESIAN_POINT('',(0.,0.));
#1090 = VECTOR('',#1091,1.);
#1091 = DIRECTION('',(0.,1.));
#1092 = ( GEOMETRIC_REPRESENTATION_CONTEXT(2) 
PARAMETRIC_REPRESENTATION_CONTEXT() REPRESENTATION_CONTEXT('2D SPACE',''
  ) );
#1093 = ORIENTED_EDGE('',*,*,#981,.F.);
#1094 = ORIENTED_EDGE('',*,*,#1069,.F.);
#1095 = ADVANCED_FACE('',(#1096),#1057,.T.);
#1096 = FACE_BOUND('',#1097,.T.);
#1097 = EDGE_LOOP('',(#1098,#1099,#1126,#1153));
#1098 = ORIENTED_EDGE('',*,*,#1040,.T.);
#1099 = ORIENTED_EDGE('',*,*,#1100,.T.);
#1100 = EDGE_CURVE('',#1041,#1101,#1103,.T.);
#1101 = VERTEX_POINT('',#1102);
#1102 = CARTESIAN_POINT('',(-5.584029265227,0.,3.213588040396));
#1103 = SEAM_CURVE('',#1104,(#1112,#1119),.PCURVE_S1.);
#1104 = ( BOUNDED_CURVE() B_SPLINE_CURVE(6,(#1105,#1106,#1107,#1108,
#1109,#1110,#1111),.UNSPECIFIED.,.F.,.F.) B_SPLINE_CURVE_WITH_KNOTS((7,7
),(0.837805860171,2.606310530431),.PIECEWISE_BEZIER_KNOTS.) CURVE() 
GEOMETRIC_REPRESENTATION_ITEM() RATIONAL_B_SPLINE_CURVE((1.039983575059,
    1.012615272741,0.997370238255,0.992377121467,0.997370238255,
1.012615272741,1.039983575059)) REPRESENTATION_ITEM('') );
#1105 = CARTESIAN_POINT('',(-6.891969067233,0.,3.014223802966));
#1106 = CARTESIAN_POINT('',(-6.699552293023,0.,2.840987621459));
#1107 = CARTESIAN_POINT('',(-6.451374089851,0.,2.742654660025));
#1108 = CARTESIAN_POINT('',(-6.180382050486,0.,2.73590573504));
#1109 = CARTESIAN_POINT('',(-5.923707110389,0.,2.823084909809));
#1110 = CARTESIAN_POINT('',(-5.716095633882,0.,2.990892140455));
#1111 = CARTESIAN_POINT('',(-5.584029265227,0.,3.213588040396));
#1112 = PCURVE('',#1057,#1113);
#1113 = DEFINITIONAL_REPRESENTATION('',(#1114),#1118);
#1114 = LINE('',#1115,#1116);
#1115 = CARTESIAN_POINT('',(6.28318530718,6.28318530718));
#1116 = VECTOR('',#1117,1.);
#1117 = DIRECTION('',(0.,1.));
#1118 = ( GEOMETRIC_REPRESENTATION_CONTEXT(2) 
PARAMETRIC_REPRESENTATION_CONTEXT() REPRESENTATION_CONTEXT('2D SPACE',''
  ) );
#1119 = PCURVE('',#1057,#1120);
#1120 = DEFINITIONAL_REPRESENTATION('',(#1121),#1125);
#1121 = LINE('',#1122,#1123);
#1122 = CARTESIAN_POINT('',(0.,6.28318530718));
#1123 = VECTOR('',#1124,1.);
#1124 = DIRECTION('',(0.,1.));
#1125 = ( GEOMETRIC_REPRESENTATION_CONTEXT(2) 
PARAMETRIC_REPRESENTATION_CONTEXT() REPRESENTATION_CONTEXT('2D SPACE',''
  ) );
#1126 = ORIENTED_EDGE('',*,*,#1127,.F.);
#1127 = EDGE_CURVE('',#1101,#1101,#1128,.T.);
#1128 = SURFACE_CURVE('',#1129,(#1134,#1141),.PCURVE_S1.);
#1129 = CIRCLE('',#1130,5.584029265227);
#1130 = AXIS2_PLACEMENT_3D('',#1131,#1132,#1133);
#1131 = CARTESIAN_POINT('',(0.,0.,3.213588040396));
#1132 = DIRECTION('',(0.,0.,-1.));
#1133 = DIRECTION('',(-1.,0.,0.));
#1134 = PCURVE('',#1057,#1135);
#1135 = DEFINITIONAL_REPRESENTATION('',(#1136),#1140);
#1136 = LINE('',#1137,#1138);
#1137 = CARTESIAN_POINT('',(0.,8.889495837611));
#1138 = VECTOR('',#1139,1.);
#1139 = DIRECTION('',(1.,0.));
#1140 = ( GEOMETRIC_REPRESENTATION_CONTEXT(2) 
PARAMETRIC_REPRESENTATION_CONTEXT() REPRESENTATION_CONTEXT('2D SPACE',''
  ) );
#1141 = PCURVE('',#1142,#1147);
#1142 = TOROIDAL_SURFACE('',#1143,4.848365637739,0.855298747577);
#1143 = AXIS2_PLACEMENT_3D('',#1144,#1145,#1146);
#1144 = CARTESIAN_POINT('',(0.,0.,2.777314072804));
#1145 = DIRECTION('',(0.,0.,-1.));
#1146 = DIRECTION('',(-1.,0.,0.));
#1147 = DEFINITIONAL_REPRESENTATION('',(#1148),#1152);
#1148 = LINE('',#1149,#1150);
#1149 = CARTESIAN_POINT('',(0.,5.747903184021));
#1150 = VECTOR('',#1151,1.);
#1151 = DIRECTION('',(1.,0.));
#1152 = ( GEOMETRIC_REPRESENTATION_CONTEXT(2) 
PARAMETRIC_REPRESENTATION_CONTEXT() REPRESENTATION_CONTEXT('2D SPACE',''
  ) );
#1153 = ORIENTED_EDGE('',*,*,#1100,.F.);
#1154 = ADVANCED_FACE('',(#1155),#1142,.F.);
#1155 = FACE_BOUND('',#1156,.F.);
#1156 = EDGE_LOOP('',(#1157,#1186,#1211,#1212));
#1157 = ORIENTED_EDGE('',*,*,#1158,.T.);
#1158 = EDGE_CURVE('',#1159,#1159,#1161,.T.);
#1159 = VERTEX_POINT('',#1160);
#1160 = CARTESIAN_POINT('',(-4.977246938704,0.,3.622846779367));
#1161 = SURFACE_CURVE('',#1162,(#1167,#1174),.PCURVE_S1.);
#1162 = CIRCLE('',#1163,4.977246938704);
#1163 = AXIS2_PLACEMENT_3D('',#1164,#1165,#1166);
#1164 = CARTESIAN_POINT('',(0.,0.,3.622846779367));
#1165 = DIRECTION('',(0.,0.,-1.));
#1166 = DIRECTION('',(-1.,0.,0.));
#1167 = PCURVE('',#1142,#1168);
#1168 = DEFINITIONAL_REPRESENTATION('',(#1169),#1173);
#1169 = LINE('',#1170,#1171);
#1170 = CARTESIAN_POINT('',(0.,4.863650848891));
#1171 = VECTOR('',#1172,1.);
#1172 = DIRECTION('',(1.,0.));
#1173 = ( GEOMETRIC_REPRESENTATION_CONTEXT(2) 
PARAMETRIC_REPRESENTATION_CONTEXT() REPRESENTATION_CONTEXT('2D SPACE',''
  ) );
#1174 = PCURVE('',#1175,#1180);
#1175 = TOROIDAL_SURFACE('',#1176,4.886518198009,0.602105795837);
#1176 = AXIS2_PLACEMENT_3D('',#1177,#1178,#1179);
#1177 = CARTESIAN_POINT('',(0.,0.,3.027615996399));
#1178 = DIRECTION('',(0.,0.,-1.));
#1179 = DIRECTION('',(-1.,0.,0.));
#1180 = DEFINITIONAL_REPRESENTATION('',(#1181),#1185);
#1181 = LINE('',#1182,#1183);
#1182 = CARTESIAN_POINT('',(0.,4.863650848891));
#1183 = VECTOR('',#1184,1.);
#1184 = DIRECTION('',(1.,0.));
#1185 = ( GEOMETRIC_REPRESENTATION_CONTEXT(2) 
PARAMETRIC_REPRESENTATION_CONTEXT() REPRESENTATION_CONTEXT('2D SPACE',''
  ) );
#1186 = ORIENTED_EDGE('',*,*,#1187,.T.);
#1187 = EDGE_CURVE('',#1159,#1101,#1188,.T.);
#1188 = SEAM_CURVE('',#1189,(#1197,#1204),.PCURVE_S1.);
#1189 = ( BOUNDED_CURVE() B_SPLINE_CURVE(6,(#1190,#1191,#1192,#1193,
#1194,#1195,#1196),.UNSPECIFIED.,.F.,.F.) B_SPLINE_CURVE_WITH_KNOTS((7,7
),(4.863650848891,5.747903184021),.PIECEWISE_BEZIER_KNOTS.) CURVE() 
GEOMETRIC_REPRESENTATION_ITEM() RATIONAL_B_SPLINE_CURVE((1.009828597128,
    1.003233227399,0.999345315019,0.998059231319,0.999345315019,
1.003233227399,1.009828597128)) REPRESENTATION_ITEM('') );
#1190 = CARTESIAN_POINT('',(-4.977246938704,0.,3.622846779367));
#1191 = CARTESIAN_POINT('',(-5.102676836957,0.,3.60372798202));
#1192 = CARTESIAN_POINT('',(-5.223714713659,0.,3.562492627896));
#1193 = CARTESIAN_POINT('',(-5.336054285176,0.,3.500379517551));
#1194 = CARTESIAN_POINT('',(-5.435731570489,0.,3.41949282768));
#1195 = CARTESIAN_POINT('',(-5.519310539457,0.,3.322719494718));
#1196 = CARTESIAN_POINT('',(-5.584029265227,0.,3.213588040396));
#1197 = PCURVE('',#1142,#1198);
#1198 = DEFINITIONAL_REPRESENTATION('',(#1199),#1203);
#1199 = LINE('',#1200,#1201);
#1200 = CARTESIAN_POINT('',(6.28318530718,0.));
#1201 = VECTOR('',#1202,1.);
#1202 = DIRECTION('',(0.,1.));
#1203 = ( GEOMETRIC_REPRESENTATION_CONTEXT(2) 
PARAMETRIC_REPRESENTATION_CONTEXT() REPRESENTATION_CONTEXT('2D SPACE',''
  ) );
#1204 = PCURVE('',#1142,#1205);
#1205 = DEFINITIONAL_REPRESENTATION('',(#1206),#1210);
#1206 = LINE('',#1207,#1208);
#1207 = CARTESIAN_POINT('',(0.,0.));
#1208 = VECTOR('',#1209,1.);
#1209 = DIRECTION('',(0.,1.));
#1210 = ( GEOMETRIC_REPRESENTATION_CONTEXT(2) 
PARAMETRIC_REPRESENTATION_CONTEXT() REPRESENTATION_CONTEXT('2D SPACE',''
  ) );
#1211 = ORIENTED_EDGE('',*,*,#1127,.F.);
#1212 = ORIENTED_EDGE('',*,*,#1187,.F.);
#1213 = ADVANCED_FACE('',(#1214),#1175,.F.);
#1214 = FACE_BOUND('',#1215,.F.);
#1215 = EDGE_LOOP('',(#1216,#1245,#1270,#1271));
#1216 = ORIENTED_EDGE('',*,*,#1217,.T.);
#1217 = EDGE_CURVE('',#1218,#1218,#1220,.T.);
#1218 = VERTEX_POINT('',#1219);
#1219 = CARTESIAN_POINT('',(-4.450993433506,0.,3.443367808044));
#1220 = SURFACE_CURVE('',#1221,(#1226,#1233),.PCURVE_S1.);
#1221 = CIRCLE('',#1222,4.450993433506);
#1222 = AXIS2_PLACEMENT_3D('',#1223,#1224,#1225);
#1223 = CARTESIAN_POINT('',(0.,0.,3.443367808044));
#1224 = DIRECTION('',(0.,0.,-1.));
#1225 = DIRECTION('',(-1.,0.,0.));
#1226 = PCURVE('',#1175,#1227);
#1227 = DEFINITIONAL_REPRESENTATION('',(#1228),#1232);
#1228 = LINE('',#1229,#1230);
#1229 = CARTESIAN_POINT('',(0.,3.903767579508));
#1230 = VECTOR('',#1231,1.);
#1231 = DIRECTION('',(1.,0.));
#1232 = ( GEOMETRIC_REPRESENTATION_CONTEXT(2) 
PARAMETRIC_REPRESENTATION_CONTEXT() REPRESENTATION_CONTEXT('2D SPACE',''
  ) );
#1233 = PCURVE('',#1234,#1239);
#1234 = TOROIDAL_SURFACE('',#1235,3.832325106124,0.855298747577);
#1235 = AXIS2_PLACEMENT_3D('',#1236,#1237,#1238);
#1236 = CARTESIAN_POINT('',(0.,0.,4.033948410757));
#1237 = DIRECTION('',(0.,0.,-1.));
#1238 = DIRECTION('',(-1.,0.,0.));
#1239 = DEFINITIONAL_REPRESENTATION('',(#1240),#1244);
#1240 = LINE('',#1241,#1242);
#1241 = CARTESIAN_POINT('',(0.,7.045360233098));
#1242 = VECTOR('',#1243,1.);
#1243 = DIRECTION('',(1.,0.));
#1244 = ( GEOMETRIC_REPRESENTATION_CONTEXT(2) 
PARAMETRIC_REPRESENTATION_CONTEXT() REPRESENTATION_CONTEXT('2D SPACE',''
  ) );
#1245 = ORIENTED_EDGE('',*,*,#1246,.T.);
#1246 = EDGE_CURVE('',#1218,#1159,#1247,.T.);
#1247 = SEAM_CURVE('',#1248,(#1256,#1263),.PCURVE_S1.);
#1248 = ( BOUNDED_CURVE() B_SPLINE_CURVE(6,(#1249,#1250,#1251,#1252,
#1253,#1254,#1255),.UNSPECIFIED.,.F.,.F.) B_SPLINE_CURVE_WITH_KNOTS((7,7
),(3.903767579508,4.863650848891),.PIECEWISE_BEZIER_KNOTS.) CURVE() 
GEOMETRIC_REPRESENTATION_ITEM() RATIONAL_B_SPLINE_CURVE((1.011593377811,
    1.003804661893,0.999228016444,0.997715840417,0.999228016444,
1.003804661893,1.011593377811)) REPRESENTATION_ITEM('') );
#1249 = CARTESIAN_POINT('',(-4.450993433506,0.,3.443367808044));
#1250 = CARTESIAN_POINT('',(-4.518021699852,0.,3.51358390596));
#1251 = CARTESIAN_POINT('',(-4.597961361605,0.,3.570213042869));
#1252 = CARTESIAN_POINT('',(-4.687640247085,0.,3.610749597001));
#1253 = CARTESIAN_POINT('',(-4.783399806051,0.,3.633456899536));
#1254 = CARTESIAN_POINT('',(-4.881282744825,0.,3.637474232637));
#1255 = CARTESIAN_POINT('',(-4.977246938704,0.,3.622846779367));
#1256 = PCURVE('',#1175,#1257);
#1257 = DEFINITIONAL_REPRESENTATION('',(#1258),#1262);
#1258 = LINE('',#1259,#1260);
#1259 = CARTESIAN_POINT('',(6.28318530718,0.));
#1260 = VECTOR('',#1261,1.);
#1261 = DIRECTION('',(0.,1.));
#1262 = ( GEOMETRIC_REPRESENTATION_CONTEXT(2) 
PARAMETRIC_REPRESENTATION_CONTEXT() REPRESENTATION_CONTEXT('2D SPACE',''
  ) );
#1263 = PCURVE('',#1175,#1264);
#1264 = DEFINITIONAL_REPRESENTATION('',(#1265),#1269);
#1265 = LINE('',#1266,#1267);
#1266 = CARTESIAN_POINT('',(0.,0.));
#1267 = VECTOR('',#1268,1.);
#1268 = DIRECTION('',(0.,1.));
#1269 = ( GEOMETRIC_REPRESENTATION_CONTEXT(2) 
PARAMETRIC_REPRESENTATION_CONTEXT() REPRESENTATION_CONTEXT('2D SPACE',''
  ) );
#1270 = ORIENTED_EDGE('',*,*,#1158,.F.);
#1271 = ORIENTED_EDGE('',*,*,#1246,.F.);
#1272 = ADVANCED_FACE('',(#1273),#1234,.T.);
#1273 = FACE_BOUND('',#1274,.T.);
#1274 = EDGE_LOOP('',(#1275,#1276,#1303,#1330));
#1275 = ORIENTED_EDGE('',*,*,#1217,.T.);
#1276 = ORIENTED_EDGE('',*,*,#1277,.T.);
#1277 = EDGE_CURVE('',#1218,#1278,#1280,.T.);
#1278 = VERTEX_POINT('',#1279);
#1279 = CARTESIAN_POINT('',(-3.131728848481,0.,3.543335700583));
#1280 = SEAM_CURVE('',#1281,(#1289,#1296),.PCURVE_S1.);
#1281 = ( BOUNDED_CURVE() B_SPLINE_CURVE(6,(#1282,#1283,#1284,#1285,
#1286,#1287,#1288),.UNSPECIFIED.,.F.,.F.) B_SPLINE_CURVE_WITH_KNOTS((7,7
),(0.762174925918,2.530679596178),.PIECEWISE_BEZIER_KNOTS.) CURVE() 
GEOMETRIC_REPRESENTATION_ITEM() RATIONAL_B_SPLINE_CURVE((1.039983575059,
    1.012615272741,0.997370238255,0.992377121467,0.997370238255,
1.012615272741,1.039983575059)) REPRESENTATION_ITEM('') );
#1282 = CARTESIAN_POINT('',(-4.450993433506,0.,3.443367808044));
#1283 = CARTESIAN_POINT('',(-4.272216239834,0.,3.256088058463));
#1284 = CARTESIAN_POINT('',(-4.032177418559,0.,3.139284136801));
#1285 = CARTESIAN_POINT('',(-3.762469993267,0.,3.112078657033));
#1286 = CARTESIAN_POINT('',(-3.499941640106,0.,3.179614552481));
#1287 = CARTESIAN_POINT('',(-3.280244331554,0.,3.331255194953));
#1288 = CARTESIAN_POINT('',(-3.131728848481,0.,3.543335700583));
#1289 = PCURVE('',#1234,#1290);
#1290 = DEFINITIONAL_REPRESENTATION('',(#1291),#1295);
#1291 = LINE('',#1292,#1293);
#1292 = CARTESIAN_POINT('',(6.28318530718,6.28318530718));
#1293 = VECTOR('',#1294,1.);
#1294 = DIRECTION('',(0.,1.));
#1295 = ( GEOMETRIC_REPRESENTATION_CONTEXT(2) 
PARAMETRIC_REPRESENTATION_CONTEXT() REPRESENTATION_CONTEXT('2D SPACE',''
  ) );
#1296 = PCURVE('',#1234,#1297);
#1297 = DEFINITIONAL_REPRESENTATION('',(#1298),#1302);
#1298 = LINE('',#1299,#1300);
#1299 = CARTESIAN_POINT('',(0.,6.28318530718));
#1300 = VECTOR('',#1301,1.);
#1301 = DIRECTION('',(0.,1.));
#1302 = ( GEOMETRIC_REPRESENTATION_CONTEXT(2) 
PARAMETRIC_REPRESENTATION_CONTEXT() REPRESENTATION_CONTEXT('2D SPACE',''
  ) );
#1303 = ORIENTED_EDGE('',*,*,#1304,.F.);
#1304 = EDGE_CURVE('',#1278,#1278,#1305,.T.);
#1305 = SURFACE_CURVE('',#1306,(#1311,#1318),.PCURVE_S1.);
#1306 = CIRCLE('',#1307,3.131728848481);
#1307 = AXIS2_PLACEMENT_3D('',#1308,#1309,#1310);
#1308 = CARTESIAN_POINT('',(0.,0.,3.543335700583));
#1309 = DIRECTION('',(0.,0.,-1.));
#1310 = DIRECTION('',(-1.,0.,0.));
#1311 = PCURVE('',#1234,#1312);
#1312 = DEFINITIONAL_REPRESENTATION('',(#1313),#1317);
#1313 = LINE('',#1314,#1315);
#1314 = CARTESIAN_POINT('',(0.,8.813864903358));
#1315 = VECTOR('',#1316,1.);
#1316 = DIRECTION('',(1.,0.));
#1317 = ( GEOMETRIC_REPRESENTATION_CONTEXT(2) 
PARAMETRIC_REPRESENTATION_CONTEXT() REPRESENTATION_CONTEXT('2D SPACE',''
  ) );
#1318 = PCURVE('',#1319,#1324);
#1319 = TOROIDAL_SURFACE('',#1320,2.431132590839,0.855298747577);
#1320 = AXIS2_PLACEMENT_3D('',#1321,#1322,#1323);
#1321 = CARTESIAN_POINT('',(0.,0.,3.052722990409));
#1322 = DIRECTION('',(0.,0.,-1.));
#1323 = DIRECTION('',(-1.,0.,0.));
#1324 = DEFINITIONAL_REPRESENTATION('',(#1325),#1329);
#1325 = LINE('',#1326,#1327);
#1326 = CARTESIAN_POINT('',(0.,5.672272249767));
#1327 = VECTOR('',#1328,1.);
#1328 = DIRECTION('',(1.,0.));
#1329 = ( GEOMETRIC_REPRESENTATION_CONTEXT(2) 
PARAMETRIC_REPRESENTATION_CONTEXT() REPRESENTATION_CONTEXT('2D SPACE',''
  ) );
#1330 = ORIENTED_EDGE('',*,*,#1277,.F.);
#1331 = ADVANCED_FACE('',(#1332),#1319,.F.);
#1332 = FACE_BOUND('',#1333,.F.);
#1333 = EDGE_LOOP('',(#1334,#1363,#1388,#1389));
#1334 = ORIENTED_EDGE('',*,*,#1335,.T.);
#1335 = EDGE_CURVE('',#1336,#1336,#1338,.T.);
#1336 = VERTEX_POINT('',#1337);
#1337 = CARTESIAN_POINT('',(-2.495757983092,0.,3.905576733019));
#1338 = SURFACE_CURVE('',#1339,(#1344,#1351),.PCURVE_S1.);
#1339 = CIRCLE('',#1340,2.495757983092);
#1340 = AXIS2_PLACEMENT_3D('',#1341,#1342,#1343);
#1341 = CARTESIAN_POINT('',(0.,0.,3.905576733019));
#1342 = DIRECTION('',(0.,0.,-1.));
#1343 = DIRECTION('',(-1.,0.,0.));
#1344 = PCURVE('',#1319,#1345);
#1345 = DEFINITIONAL_REPRESENTATION('',(#1346),#1350);
#1346 = LINE('',#1347,#1348);
#1347 = CARTESIAN_POINT('',(0.,4.788019914638));
#1348 = VECTOR('',#1349,1.);
#1349 = DIRECTION('',(1.,0.));
#1350 = ( GEOMETRIC_REPRESENTATION_CONTEXT(2) 
PARAMETRIC_REPRESENTATION_CONTEXT() REPRESENTATION_CONTEXT('2D SPACE',''
  ) );
#1351 = PCURVE('',#1352,#1357);
#1352 = TOROIDAL_SURFACE('',#1353,2.450263559834,0.602105795837);
#1353 = AXIS2_PLACEMENT_3D('',#1354,#1355,#1356);
#1354 = CARTESIAN_POINT('',(0.,0.,3.305192150578));
#1355 = DIRECTION('',(0.,0.,-1.));
#1356 = DIRECTION('',(-1.,0.,0.));
#1357 = DEFINITIONAL_REPRESENTATION('',(#1358),#1362);
#1358 = LINE('',#1359,#1360);
#1359 = CARTESIAN_POINT('',(0.,4.788019914639));
#1360 = VECTOR('',#1361,1.);
#1361 = DIRECTION('',(1.,0.));
#1362 = ( GEOMETRIC_REPRESENTATION_CONTEXT(2) 
PARAMETRIC_REPRESENTATION_CONTEXT() REPRESENTATION_CONTEXT('2D SPACE',''
  ) );
#1363 = ORIENTED_EDGE('',*,*,#1364,.T.);
#1364 = EDGE_CURVE('',#1336,#1278,#1365,.T.);
#1365 = SEAM_CURVE('',#1366,(#1374,#1381),.PCURVE_S1.);
#1366 = ( BOUNDED_CURVE() B_SPLINE_CURVE(6,(#1367,#1368,#1369,#1370,
#1371,#1372,#1373),.UNSPECIFIED.,.F.,.F.) B_SPLINE_CURVE_WITH_KNOTS((7,7
),(4.788019914638,5.672272249767),.PIECEWISE_BEZIER_KNOTS.) CURVE() 
GEOMETRIC_REPRESENTATION_ITEM() RATIONAL_B_SPLINE_CURVE((1.009828597128,
    1.003233227399,0.999345315019,0.998059231319,0.999345315019,
1.003233227399,1.009828597128)) REPRESENTATION_ITEM('') );
#1367 = CARTESIAN_POINT('',(-2.495757983092,0.,3.905576733018));
#1368 = CARTESIAN_POINT('',(-2.6222739148,0.,3.895989928969));
#1369 = CARTESIAN_POINT('',(-2.746081481896,0.,3.864017935662));
#1370 = CARTESIAN_POINT('',(-2.862793108581,0.,3.810570634496));
#1371 = CARTESIAN_POINT('',(-2.968297156317,0.,3.737446673193));
#1372 = CARTESIAN_POINT('',(-3.058949283787,0.,3.647265112929));
#1373 = CARTESIAN_POINT('',(-3.131728848481,0.,3.543335700583));
#1374 = PCURVE('',#1319,#1375);
#1375 = DEFINITIONAL_REPRESENTATION('',(#1376),#1380);
#1376 = LINE('',#1377,#1378);
#1377 = CARTESIAN_POINT('',(6.28318530718,0.));
#1378 = VECTOR('',#1379,1.);
#1379 = DIRECTION('',(0.,1.));
#1380 = ( GEOMETRIC_REPRESENTATION_CONTEXT(2) 
PARAMETRIC_REPRESENTATION_CONTEXT() REPRESENTATION_CONTEXT('2D SPACE',''
  ) );
#1381 = PCURVE('',#1319,#1382);
#1382 = DEFINITIONAL_REPRESENTATION('',(#1383),#1387);
#1383 = LINE('',#1384,#1385);
#1384 = CARTESIAN_POINT('',(0.,0.));
#1385 = VECTOR('',#1386,1.);
#1386 = DIRECTION('',(0.,1.));
#1387 = ( GEOMETRIC_REPRESENTATION_CONTEXT(2) 
PARAMETRIC_REPRESENTATION_CONTEXT() REPRESENTATION_CONTEXT('2D SPACE',''
  ) );
#1388 = ORIENTED_EDGE('',*,*,#1304,.F.);
#1389 = ORIENTED_EDGE('',*,*,#1364,.F.);
#1390 = ADVANCED_FACE('',(#1391),#1352,.F.);
#1391 = FACE_BOUND('',#1392,.F.);
#1392 = EDGE_LOOP('',(#1393,#1422,#1447,#1448));
#1393 = ORIENTED_EDGE('',*,*,#1394,.T.);
#1394 = EDGE_CURVE('',#1395,#1395,#1397,.T.);
#1395 = VERTEX_POINT('',#1396);
#1396 = CARTESIAN_POINT('',(-1.98457008087,0.,3.686847719161));
#1397 = SURFACE_CURVE('',#1398,(#1403,#1410),.PCURVE_S1.);
#1398 = CIRCLE('',#1399,1.98457008087);
#1399 = AXIS2_PLACEMENT_3D('',#1400,#1401,#1402);
#1400 = CARTESIAN_POINT('',(0.,0.,3.686847719161));
#1401 = DIRECTION('',(0.,0.,-1.));
#1402 = DIRECTION('',(-1.,0.,0.));
#1403 = PCURVE('',#1352,#1404);
#1404 = DEFINITIONAL_REPRESENTATION('',(#1405),#1409);
#1405 = LINE('',#1406,#1407);
#1406 = CARTESIAN_POINT('',(0.,3.828136645254));
#1407 = VECTOR('',#1408,1.);
#1408 = DIRECTION('',(1.,0.));
#1409 = ( GEOMETRIC_REPRESENTATION_CONTEXT(2) 
PARAMETRIC_REPRESENTATION_CONTEXT() REPRESENTATION_CONTEXT('2D SPACE',''
  ) );
#1410 = PCURVE('',#1411,#1416);
#1411 = TOROIDAL_SURFACE('',#1412,1.323046720581,0.855298747577);
#1412 = AXIS2_PLACEMENT_3D('',#1413,#1414,#1415);
#1413 = CARTESIAN_POINT('',(0.,0.,4.2289941859));
#1414 = DIRECTION('',(0.,0.,-1.));
#1415 = DIRECTION('',(-1.,0.,0.));
#1416 = DEFINITIONAL_REPRESENTATION('',(#1417),#1421);
#1417 = LINE('',#1418,#1419);
#1418 = CARTESIAN_POINT('',(0.,6.969729298845));
#1419 = VECTOR('',#1420,1.);
#1420 = DIRECTION('',(1.,0.));
#1421 = ( GEOMETRIC_REPRESENTATION_CONTEXT(2) 
PARAMETRIC_REPRESENTATION_CONTEXT() REPRESENTATION_CONTEXT('2D SPACE',''
  ) );
#1422 = ORIENTED_EDGE('',*,*,#1423,.T.);
#1423 = EDGE_CURVE('',#1395,#1336,#1424,.T.);
#1424 = SEAM_CURVE('',#1425,(#1433,#1440),.PCURVE_S1.);
#1425 = ( BOUNDED_CURVE() B_SPLINE_CURVE(6,(#1426,#1427,#1428,#1429,
#1430,#1431,#1432),.UNSPECIFIED.,.F.,.F.) B_SPLINE_CURVE_WITH_KNOTS((7,7
),(3.828136645254,4.788019914639),.PIECEWISE_BEZIER_KNOTS.) CURVE() 
GEOMETRIC_REPRESENTATION_ITEM() RATIONAL_B_SPLINE_CURVE((1.011593377811,
    1.003804661893,0.999228016444,0.997715840417,0.999228016444,
1.003804661893,1.011593377811)) REPRESENTATION_ITEM('') );
#1426 = CARTESIAN_POINT('',(-1.98457008087,0.,3.686847719161));
#1427 = CARTESIAN_POINT('',(-2.046101288641,0.,3.761927672319));
#1428 = CARTESIAN_POINT('',(-2.121533597769,0.,3.824435075145));
#1429 = CARTESIAN_POINT('',(-2.207893226626,0.,3.871631782927));
#1430 = CARTESIAN_POINT('',(-2.301663304215,0.,3.901509655522));
#1431 = CARTESIAN_POINT('',(-2.39896288425,0.,3.912911427021));
#1432 = CARTESIAN_POINT('',(-2.495757983092,0.,3.905576733019));
#1433 = PCURVE('',#1352,#1434);
#1434 = DEFINITIONAL_REPRESENTATION('',(#1435),#1439);
#1435 = LINE('',#1436,#1437);
#1436 = CARTESIAN_POINT('',(6.28318530718,0.));
#1437 = VECTOR('',#1438,1.);
#1438 = DIRECTION('',(0.,1.));
#1439 = ( GEOMETRIC_REPRESENTATION_CONTEXT(2) 
PARAMETRIC_REPRESENTATION_CONTEXT() REPRESENTATION_CONTEXT('2D SPACE',''
  ) );
#1440 = PCURVE('',#1352,#1441);
#1441 = DEFINITIONAL_REPRESENTATION('',(#1442),#1446);
#1442 = LINE('',#1443,#1444);
#1443 = CARTESIAN_POINT('',(0.,0.));
#1444 = VECTOR('',#1445,1.);
#1445 = DIRECTION('',(0.,1.));
#1446 = ( GEOMETRIC_REPRESENTATION_CONTEXT(2) 
PARAMETRIC_REPRESENTATION_CONTEXT() REPRESENTATION_CONTEXT('2D SPACE',''
  ) );
#1447 = ORIENTED_EDGE('',*,*,#1335,.F.);
#1448 = ORIENTED_EDGE('',*,*,#1423,.F.);
#1449 = ADVANCED_FACE('',(#1450),#1411,.T.);
#1450 = FACE_BOUND('',#1451,.T.);
#1451 = EDGE_LOOP('',(#1452,#1453,#1480,#1531,#1575));
#1452 = ORIENTED_EDGE('',*,*,#1394,.T.);
#1453 = ORIENTED_EDGE('',*,*,#1454,.T.);
#1454 = EDGE_CURVE('',#1395,#1455,#1457,.T.);
#1455 = VERTEX_POINT('',#1456);
#1456 = CARTESIAN_POINT('',(-0.66152336029,0.,3.686847719161));
#1457 = SEAM_CURVE('',#1458,(#1466,#1473),.PCURVE_S1.);
#1458 = ( BOUNDED_CURVE() B_SPLINE_CURVE(6,(#1459,#1460,#1461,#1462,
#1463,#1464,#1465),.UNSPECIFIED.,.F.,.F.) B_SPLINE_CURVE_WITH_KNOTS((7,7
),(0.686543991665,2.455048661925),.PIECEWISE_BEZIER_KNOTS.) CURVE() 
GEOMETRIC_REPRESENTATION_ITEM() RATIONAL_B_SPLINE_CURVE((1.039983575059,
    1.012615272741,0.997370238255,0.992377121467,0.997370238255,
1.012615272741,1.039983575059)) REPRESENTATION_ITEM('') );
#1459 = CARTESIAN_POINT('',(-1.984570080871,0.,3.686847719161));
#1460 = CARTESIAN_POINT('',(-1.82045459276,0.,3.486595138297));
#1461 = CARTESIAN_POINT('',(-1.589927530257,0.,3.35198806089));
#1462 = CARTESIAN_POINT('',(-1.32304672058,0.,3.304481568558));
#1463 = CARTESIAN_POINT('',(-1.056165910904,0.,3.35198806089));
#1464 = CARTESIAN_POINT('',(-0.825638848401,0.,3.486595138297));
#1465 = CARTESIAN_POINT('',(-0.66152336029,0.,3.686847719161));
#1466 = PCURVE('',#1411,#1467);
#1467 = DEFINITIONAL_REPRESENTATION('',(#1468),#1472);
#1468 = LINE('',#1469,#1470);
#1469 = CARTESIAN_POINT('',(6.28318530718,6.28318530718));
#1470 = VECTOR('',#1471,1.);
#1471 = DIRECTION('',(0.,1.));
#1472 = ( GEOMETRIC_REPRESENTATION_CONTEXT(2) 
PARAMETRIC_REPRESENTATION_CONTEXT() REPRESENTATION_CONTEXT('2D SPACE',''
  ) );
#1473 = PCURVE('',#1411,#1474);
#1474 = DEFINITIONAL_REPRESENTATION('',(#1475),#1479);
#1475 = LINE('',#1476,#1477);
#1476 = CARTESIAN_POINT('',(0.,6.28318530718));
#1477 = VECTOR('',#1478,1.);
#1478 = DIRECTION('',(0.,1.));
#1479 = ( GEOMETRIC_REPRESENTATION_CONTEXT(2) 
PARAMETRIC_REPRESENTATION_CONTEXT() REPRESENTATION_CONTEXT('2D SPACE',''
  ) );
#1480 = ORIENTED_EDGE('',*,*,#1481,.F.);
#1481 = EDGE_CURVE('',#1482,#1455,#1484,.T.);
#1482 = VERTEX_POINT('',#1483);
#1483 = CARTESIAN_POINT('',(0.,0.661523360291,3.686847719162));
#1484 = SURFACE_CURVE('',#1485,(#1490,#1497),.PCURVE_S1.);
#1485 = CIRCLE('',#1486,0.66152336029);
#1486 = AXIS2_PLACEMENT_3D('',#1487,#1488,#1489);
#1487 = CARTESIAN_POINT('',(0.,0.,3.686847719161));
#1488 = DIRECTION('',(0.,0.,-1.));
#1489 = DIRECTION('',(-1.,0.,0.));
#1490 = PCURVE('',#1411,#1491);
#1491 = DEFINITIONAL_REPRESENTATION('',(#1492),#1496);
#1492 = LINE('',#1493,#1494);
#1493 = CARTESIAN_POINT('',(0.,8.738233969105));
#1494 = VECTOR('',#1495,1.);
#1495 = DIRECTION('',(1.,0.));
#1496 = ( GEOMETRIC_REPRESENTATION_CONTEXT(2) 
PARAMETRIC_REPRESENTATION_CONTEXT() REPRESENTATION_CONTEXT('2D SPACE',''
  ) );
#1497 = PCURVE('',#1498,#1503);
#1498 = SPHERICAL_SURFACE('',#1499,0.855298747577);
#1499 = AXIS2_PLACEMENT_3D('',#1500,#1501,#1502);
#1500 = CARTESIAN_POINT('',(0.,-1.4E-16,3.144701252424));
#1501 = DIRECTION('',(0.,0.,-1.));
#1502 = DIRECTION('',(0.,1.,0.));
#1503 = DEFINITIONAL_REPRESENTATION('',(#1504),#1530);
#1504 = B_SPLINE_CURVE_WITH_KNOTS('',3,(#1505,#1506,#1507,#1508,#1509,
    #1510,#1511,#1512,#1513,#1514,#1515,#1516,#1517,#1518,#1519,#1520,
    #1521,#1522,#1523,#1524,#1525,#1526,#1527,#1528,#1529),
  .UNSPECIFIED.,.F.,.F.,(4,1,1,1,1,1,1,1,1,1,1,1,1,1,1,1,1,1,1,1,1,1,4),
  (0.,0.285599332145,0.571198664289,0.856797996434,1.142397328578,
    1.427996660723,1.713595992867,1.999195325012,2.284794657156,
    2.570393989301,2.855993321445,3.14159265359,3.427191985734,
    3.712791317879,3.998390650023,4.283989982168,4.569589314312,
    4.855188646457,5.140787978601,5.426387310746,5.711986642891,
    5.997585975035,6.28318530718),.QUASI_UNIFORM_KNOTS.);
#1505 = CARTESIAN_POINT('',(-1.570796326795,-0.686543991664));
#1506 = CARTESIAN_POINT('',(-1.475596549413,-0.686543991664));
#1507 = CARTESIAN_POINT('',(-1.28519699465,-0.686543991664));
#1508 = CARTESIAN_POINT('',(-0.999597662506,-0.686543991664));
#1509 = CARTESIAN_POINT('',(-0.713998330361,-0.686543991664));
#1510 = CARTESIAN_POINT('',(-0.428398998217,-0.686543991664));
#1511 = CARTESIAN_POINT('',(-0.142799666072,-0.686543991664));
#1512 = CARTESIAN_POINT('',(0.142799666072,-0.686543991664));
#1513 = CARTESIAN_POINT('',(0.428398998217,-0.686543991664));
#1514 = CARTESIAN_POINT('',(0.713998330361,-0.686543991664));
#1515 = CARTESIAN_POINT('',(0.999597662506,-0.686543991664));
#1516 = CARTESIAN_POINT('',(1.28519699465,-0.686543991664));
#1517 = CARTESIAN_POINT('',(1.570796326795,-0.686543991664));
#1518 = CARTESIAN_POINT('',(1.856395658939,-0.686543991664));
#1519 = CARTESIAN_POINT('',(2.141994991084,-0.686543991664));
#1520 = CARTESIAN_POINT('',(2.427594323228,-0.686543991664));
#1521 = CARTESIAN_POINT('',(2.713193655373,-0.686543991664));
#1522 = CARTESIAN_POINT('',(2.998792987518,-0.686543991664));
#1523 = CARTESIAN_POINT('',(3.284392319662,-0.686543991664));
#1524 = CARTESIAN_POINT('',(3.569991651807,-0.686543991664));
#1525 = CARTESIAN_POINT('',(3.855590983951,-0.686543991664));
#1526 = CARTESIAN_POINT('',(4.141190316096,-0.686543991664));
#1527 = CARTESIAN_POINT('',(4.42678964824,-0.686543991664));
#1528 = CARTESIAN_POINT('',(4.617189203003,-0.686543991664));
#1529 = CARTESIAN_POINT('',(4.712388980385,-0.686543991664));
#1530 = ( GEOMETRIC_REPRESENTATION_CONTEXT(2) 
PARAMETRIC_REPRESENTATION_CONTEXT() REPRESENTATION_CONTEXT('2D SPACE',''
  ) );
#1531 = ORIENTED_EDGE('',*,*,#1532,.F.);
#1532 = EDGE_CURVE('',#1455,#1482,#1533,.T.);
#1533 = SURFACE_CURVE('',#1534,(#1539,#1546),.PCURVE_S1.);
#1534 = CIRCLE('',#1535,0.66152336029);
#1535 = AXIS2_PLACEMENT_3D('',#1536,#1537,#1538);
#1536 = CARTESIAN_POINT('',(0.,0.,3.686847719161));
#1537 = DIRECTION('',(0.,0.,-1.));
#1538 = DIRECTION('',(-1.,0.,0.));
#1539 = PCURVE('',#1411,#1540);
#1540 = DEFINITIONAL_REPRESENTATION('',(#1541),#1545);
#1541 = LINE('',#1542,#1543);
#1542 = CARTESIAN_POINT('',(0.,8.738233969105));
#1543 = VECTOR('',#1544,1.);
#1544 = DIRECTION('',(1.,0.));
#1545 = ( GEOMETRIC_REPRESENTATION_CONTEXT(2) 
PARAMETRIC_REPRESENTATION_CONTEXT() REPRESENTATION_CONTEXT('2D SPACE',''
  ) );
#1546 = PCURVE('',#1498,#1547);
#1547 = DEFINITIONAL_REPRESENTATION('',(#1548),#1574);
#1548 = B_SPLINE_CURVE_WITH_KNOTS('',3,(#1549,#1550,#1551,#1552,#1553,
    #1554,#1555,#1556,#1557,#1558,#1559,#1560,#1561,#1562,#1563,#1564,
    #1565,#1566,#1567,#1568,#1569,#1570,#1571,#1572,#1573),
  .UNSPECIFIED.,.F.,.F.,(4,1,1,1,1,1,1,1,1,1,1,1,1,1,1,1,1,1,1,1,1,1,4),
  (0.,0.285599332145,0.571198664289,0.856797996434,1.142397328578,
    1.427996660723,1.713595992867,1.999195325012,2.284794657156,
    2.570393989301,2.855993321445,3.14159265359,3.427191985734,
    3.712791317879,3.998390650023,4.283989982168,4.569589314312,
    4.855188646457,5.140787978601,5.426387310746,5.711986642891,
    5.997585975035,6.28318530718),.QUASI_UNIFORM_KNOTS.);
#1549 = CARTESIAN_POINT('',(4.712388980385,-0.686543991664));
#1550 = CARTESIAN_POINT('',(4.807588757766,-0.686543991664));
#1551 = CARTESIAN_POINT('',(4.997988312529,-0.686543991664));
#1552 = CARTESIAN_POINT('',(5.283587644674,-0.686543991664));
#1553 = CARTESIAN_POINT('',(5.569186976818,-0.686543991664));
#1554 = CARTESIAN_POINT('',(5.854786308963,-0.686543991664));
#1555 = CARTESIAN_POINT('',(6.140385641107,-0.686543991664));
#1556 = CARTESIAN_POINT('',(6.425984973252,-0.686543991664));
#1557 = CARTESIAN_POINT('',(6.711584305396,-0.686543991664));
#1558 = CARTESIAN_POINT('',(6.997183637541,-0.686543991664));
#1559 = CARTESIAN_POINT('',(7.282782969685,-0.686543991664));
#1560 = CARTESIAN_POINT('',(7.56838230183,-0.686543991664));
#1561 = CARTESIAN_POINT('',(7.853981633974,-0.686543991664));
#1562 = CARTESIAN_POINT('',(8.139580966119,-0.686543991664));
#1563 = CARTESIAN_POINT('',(8.425180298264,-0.686543991664));
#1564 = CARTESIAN_POINT('',(8.710779630408,-0.686543991664));
#1565 = CARTESIAN_POINT('',(8.996378962553,-0.686543991664));
#1566 = CARTESIAN_POINT('',(9.281978294697,-0.686543991664));
#1567 = CARTESIAN_POINT('',(9.567577626842,-0.686543991664));
#1568 = CARTESIAN_POINT('',(9.853176958986,-0.686543991664));
#1569 = CARTESIAN_POINT('',(10.138776291131,-0.686543991664));
#1570 = CARTESIAN_POINT('',(10.424375623275,-0.686543991664));
#1571 = CARTESIAN_POINT('',(10.70997495542,-0.686543991664));
#1572 = CARTESIAN_POINT('',(10.900374510183,-0.686543991664));
#1573 = CARTESIAN_POINT('',(10.995574287564,-0.686543991664));
#1574 = ( GEOMETRIC_REPRESENTATION_CONTEXT(2) 
PARAMETRIC_REPRESENTATION_CONTEXT() REPRESENTATION_CONTEXT('2D SPACE',''
  ) );
#1575 = ORIENTED_EDGE('',*,*,#1454,.F.);
#1576 = ADVANCED_FACE('',(#1577),#1498,.F.);
#1577 = FACE_BOUND('',#1578,.F.);
#1578 = EDGE_LOOP('',(#1579,#1580,#1606,#1607));
#1579 = ORIENTED_EDGE('',*,*,#1481,.F.);
#1580 = ORIENTED_EDGE('',*,*,#1581,.F.);
#1581 = EDGE_CURVE('',#1582,#1482,#1584,.T.);
#1582 = VERTEX_POINT('',#1583);
#1583 = CARTESIAN_POINT('',(0.,-0.,4.000000000001));
#1584 = SEAM_CURVE('',#1585,(#1592,#1599),.PCURVE_S1.);
#1585 = B_SPLINE_CURVE_WITH_KNOTS('',5,(#1586,#1587,#1588,#1589,#1590,
    #1591),.UNSPECIFIED.,.F.,.F.,(6,6),(-1.570796326795,-0.686543991664)
  ,.PIECEWISE_BEZIER_KNOTS.);
#1586 = CARTESIAN_POINT('',(-0.,-1.1E-16,4.000000000001));
#1587 = CARTESIAN_POINT('',(-4.E-17,0.151259982956,4.000000000001));
#1588 = CARTESIAN_POINT('',(-7.E-17,0.302524810807,3.966573834505));
#1589 = CARTESIAN_POINT('',(-1.1E-16,0.443909401277,3.899645121721));
#1590 = CARTESIAN_POINT('',(-1.4E-16,0.565644504452,3.803838434378));
#1591 = CARTESIAN_POINT('',(-1.6E-16,0.661523360291,3.686847719162));
#1592 = PCURVE('',#1498,#1593);
#1593 = DEFINITIONAL_REPRESENTATION('',(#1594),#1598);
#1594 = LINE('',#1595,#1596);
#1595 = CARTESIAN_POINT('',(0.,0.));
#1596 = VECTOR('',#1597,1.);
#1597 = DIRECTION('',(0.,1.));
#1598 = ( GEOMETRIC_REPRESENTATION_CONTEXT(2) 
PARAMETRIC_REPRESENTATION_CONTEXT() REPRESENTATION_CONTEXT('2D SPACE',''
  ) );
#1599 = PCURVE('',#1498,#1600);
#1600 = DEFINITIONAL_REPRESENTATION('',(#1601),#1605);
#1601 = LINE('',#1602,#1603);
#1602 = CARTESIAN_POINT('',(6.28318530718,0.));
#1603 = VECTOR('',#1604,1.);
#1604 = DIRECTION('',(0.,1.));
#1605 = ( GEOMETRIC_REPRESENTATION_CONTEXT(2) 
PARAMETRIC_REPRESENTATION_CONTEXT() REPRESENTATION_CONTEXT('2D SPACE',''
  ) );
#1606 = ORIENTED_EDGE('',*,*,#1581,.T.);
#1607 = ORIENTED_EDGE('',*,*,#1532,.F.);
#1608 = ADVANCED_FACE('',(#1609),#110,.F.);
#1609 = FACE_BOUND('',#1610,.F.);
#1610 = EDGE_LOOP('',(#1611,#1612,#1613,#1634,#1635));
#1611 = ORIENTED_EDGE('',*,*,#844,.F.);
#1612 = ORIENTED_EDGE('',*,*,#943,.F.);
#1613 = ORIENTED_EDGE('',*,*,#1614,.T.);
#1614 = EDGE_CURVE('',#847,#60,#1615,.T.);
#1615 = SEAM_CURVE('',#1616,(#1620,#1627),.PCURVE_S1.);
#1616 = B_SPLINE_CURVE_WITH_KNOTS('',2,(#1617,#1618,#1619),
  .UNSPECIFIED.,.F.,.F.,(3,3),(-6.289832549942E-05,1.),
  .PIECEWISE_BEZIER_KNOTS.);
#1617 = CARTESIAN_POINT('',(9.130600413598,-2.617E-14,2.302882903746));
#1618 = CARTESIAN_POINT('',(9.840939220524,-1.437E-14,2.632149590138));
#1619 = CARTESIAN_POINT('',(9.840939220524,-3.654E-14,1.849277796644));
#1620 = PCURVE('',#110,#1621);
#1621 = DEFINITIONAL_REPRESENTATION('',(#1622),#1626);
#1622 = LINE('',#1623,#1624);
#1623 = CARTESIAN_POINT('',(0.,3.14159265359));
#1624 = VECTOR('',#1625,1.);
#1625 = DIRECTION('',(1.,0.));
#1626 = ( GEOMETRIC_REPRESENTATION_CONTEXT(2) 
PARAMETRIC_REPRESENTATION_CONTEXT() REPRESENTATION_CONTEXT('2D SPACE',''
  ) );
#1627 = PCURVE('',#110,#1628);
#1628 = DEFINITIONAL_REPRESENTATION('',(#1629),#1633);
#1629 = LINE('',#1630,#1631);
#1630 = CARTESIAN_POINT('',(0.,9.424777960769));
#1631 = VECTOR('',#1632,1.);
#1632 = DIRECTION('',(1.,0.));
#1633 = ( GEOMETRIC_REPRESENTATION_CONTEXT(2) 
PARAMETRIC_REPRESENTATION_CONTEXT() REPRESENTATION_CONTEXT('2D SPACE',''
  ) );
#1634 = ORIENTED_EDGE('',*,*,#81,.F.);
#1635 = ORIENTED_EDGE('',*,*,#1614,.F.);
#1636 = ADVANCED_FACE('',(#1637),#574,.F.);
#1637 = FACE_BOUND('',#1638,.F.);
#1638 = EDGE_LOOP('',(#1639,#1640,#1660,#1661));
#1639 = ORIENTED_EDGE('',*,*,#557,.F.);
#1640 = ORIENTED_EDGE('',*,*,#1641,.F.);
#1641 = EDGE_CURVE('',#721,#558,#1642,.T.);
#1642 = SEAM_CURVE('',#1643,(#1646,#1653),.PCURVE_S1.);
#1643 = B_SPLINE_CURVE_WITH_KNOTS('',1,(#1644,#1645),.UNSPECIFIED.,.F.,
  .F.,(2,2),(4.,9.5),.PIECEWISE_BEZIER_KNOTS.);
#1644 = CARTESIAN_POINT('',(13.490830674051,11.840830674051,0.));
#1645 = CARTESIAN_POINT('',(13.490830674051,11.840830674051,5.5));
#1646 = PCURVE('',#574,#1647);
#1647 = DEFINITIONAL_REPRESENTATION('',(#1648),#1652);
#1648 = LINE('',#1649,#1650);
#1649 = CARTESIAN_POINT('',(0.,0.));
#1650 = VECTOR('',#1651,1.);
#1651 = DIRECTION('',(0.,1.));
#1652 = ( GEOMETRIC_REPRESENTATION_CONTEXT(2) 
PARAMETRIC_REPRESENTATION_CONTEXT() REPRESENTATION_CONTEXT('2D SPACE',''
  ) );
#1653 = PCURVE('',#574,#1654);
#1654 = DEFINITIONAL_REPRESENTATION('',(#1655),#1659);
#1655 = LINE('',#1656,#1657);
#1656 = CARTESIAN_POINT('',(6.28318530718,0.));
#1657 = VECTOR('',#1658,1.);
#1658 = DIRECTION('',(0.,1.));
#1659 = ( GEOMETRIC_REPRESENTATION_CONTEXT(2) 
PARAMETRIC_REPRESENTATION_CONTEXT() REPRESENTATION_CONTEXT('2D SPACE',''
  ) );
#1660 = ORIENTED_EDGE('',*,*,#720,.T.);
#1661 = ORIENTED_EDGE('',*,*,#1641,.T.);
#1662 = ADVANCED_FACE('',(#1663),#543,.F.);
#1663 = FACE_BOUND('',#1664,.F.);
#1664 = EDGE_LOOP('',(#1665,#1666,#1686,#1687));
#1665 = ORIENTED_EDGE('',*,*,#526,.F.);
#1666 = ORIENTED_EDGE('',*,*,#1667,.F.);
#1667 = EDGE_CURVE('',#695,#527,#1668,.T.);
#1668 = SEAM_CURVE('',#1669,(#1672,#1679),.PCURVE_S1.);
#1669 = B_SPLINE_CURVE_WITH_KNOTS('',1,(#1670,#1671),.UNSPECIFIED.,.F.,
  .F.,(2,2),(4.,9.5),.PIECEWISE_BEZIER_KNOTS.);
#1670 = CARTESIAN_POINT('',(-10.19083067405,11.840830674051,0.));
#1671 = CARTESIAN_POINT('',(-10.19083067405,11.840830674051,5.5));
#1672 = PCURVE('',#543,#1673);
#1673 = DEFINITIONAL_REPRESENTATION('',(#1674),#1678);
#1674 = LINE('',#1675,#1676);
#1675 = CARTESIAN_POINT('',(0.,0.));
#1676 = VECTOR('',#1677,1.);
#1677 = DIRECTION('',(0.,1.));
#1678 = ( GEOMETRIC_REPRESENTATION_CONTEXT(2) 
PARAMETRIC_REPRESENTATION_CONTEXT() REPRESENTATION_CONTEXT('2D SPACE',''
  ) );
#1679 = PCURVE('',#543,#1680);
#1680 = DEFINITIONAL_REPRESENTATION('',(#1681),#1685);
#1681 = LINE('',#1682,#1683);
#1682 = CARTESIAN_POINT('',(6.28318530718,0.));
#1683 = VECTOR('',#1684,1.);
#1684 = DIRECTION('',(0.,1.));
#1685 = ( GEOMETRIC_REPRESENTATION_CONTEXT(2) 
PARAMETRIC_REPRESENTATION_CONTEXT() REPRESENTATION_CONTEXT('2D SPACE',''
  ) );
#1686 = ORIENTED_EDGE('',*,*,#694,.T.);
#1687 = ORIENTED_EDGE('',*,*,#1667,.T.);
#1688 = ADVANCED_FACE('',(#1689),#512,.F.);
#1689 = FACE_BOUND('',#1690,.F.);
#1690 = EDGE_LOOP('',(#1691,#1692,#1712,#1713));
#1691 = ORIENTED_EDGE('',*,*,#495,.F.);
#1692 = ORIENTED_EDGE('',*,*,#1693,.F.);
#1693 = EDGE_CURVE('',#669,#496,#1694,.T.);
#1694 = SEAM_CURVE('',#1695,(#1698,#1705),.PCURVE_S1.);
#1695 = B_SPLINE_CURVE_WITH_KNOTS('',1,(#1696,#1697),.UNSPECIFIED.,.F.,
  .F.,(2,2),(4.,9.5),.PIECEWISE_BEZIER_KNOTS.);
#1696 = CARTESIAN_POINT('',(-10.19083067405,-11.84083067405,0.));
#1697 = CARTESIAN_POINT('',(-10.19083067405,-11.84083067405,5.5));
#1698 = PCURVE('',#512,#1699);
#1699 = DEFINITIONAL_REPRESENTATION('',(#1700),#1704);
#1700 = LINE('',#1701,#1702);
#1701 = CARTESIAN_POINT('',(0.,0.));
#1702 = VECTOR('',#1703,1.);
#1703 = DIRECTION('',(0.,1.));
#1704 = ( GEOMETRIC_REPRESENTATION_CONTEXT(2) 
PARAMETRIC_REPRESENTATION_CONTEXT() REPRESENTATION_CONTEXT('2D SPACE',''
  ) );
#1705 = PCURVE('',#512,#1706);
#1706 = DEFINITIONAL_REPRESENTATION('',(#1707),#1711);
#1707 = LINE('',#1708,#1709);
#1708 = CARTESIAN_POINT('',(6.28318530718,0.));
#1709 = VECTOR('',#1710,1.);
#1710 = DIRECTION('',(0.,1.));
#1711 = ( GEOMETRIC_REPRESENTATION_CONTEXT(2) 
PARAMETRIC_REPRESENTATION_CONTEXT() REPRESENTATION_CONTEXT('2D SPACE',''
  ) );
#1712 = ORIENTED_EDGE('',*,*,#668,.T.);
#1713 = ORIENTED_EDGE('',*,*,#1693,.T.);
#1714 = ADVANCED_FACE('',(#1715),#481,.F.);
#1715 = FACE_BOUND('',#1716,.F.);
#1716 = EDGE_LOOP('',(#1717,#1718,#1738,#1739));
#1717 = ORIENTED_EDGE('',*,*,#464,.F.);
#1718 = ORIENTED_EDGE('',*,*,#1719,.F.);
#1719 = EDGE_CURVE('',#643,#465,#1720,.T.);
#1720 = SEAM_CURVE('',#1721,(#1724,#1731),.PCURVE_S1.);
#1721 = B_SPLINE_CURVE_WITH_KNOTS('',1,(#1722,#1723),.UNSPECIFIED.,.F.,
  .F.,(2,2),(4.,9.5),.PIECEWISE_BEZIER_KNOTS.);
#1722 = CARTESIAN_POINT('',(13.490830674051,-11.84083067405,0.));
#1723 = CARTESIAN_POINT('',(13.490830674051,-11.84083067405,5.5));
#1724 = PCURVE('',#481,#1725);
#1725 = DEFINITIONAL_REPRESENTATION('',(#1726),#1730);
#1726 = LINE('',#1727,#1728);
#1727 = CARTESIAN_POINT('',(0.,0.));
#1728 = VECTOR('',#1729,1.);
#1729 = DIRECTION('',(0.,1.));
#1730 = ( GEOMETRIC_REPRESENTATION_CONTEXT(2) 
PARAMETRIC_REPRESENTATION_CONTEXT() REPRESENTATION_CONTEXT('2D SPACE',''
  ) );
#1731 = PCURVE('',#481,#1732);
#1732 = DEFINITIONAL_REPRESENTATION('',(#1733),#1737);
#1733 = LINE('',#1734,#1735);
#1734 = CARTESIAN_POINT('',(6.28318530718,0.));
#1735 = VECTOR('',#1736,1.);
#1736 = DIRECTION('',(0.,1.));
#1737 = ( GEOMETRIC_REPRESENTATION_CONTEXT(2) 
PARAMETRIC_REPRESENTATION_CONTEXT() REPRESENTATION_CONTEXT('2D SPACE',''
  ) );
#1738 = ORIENTED_EDGE('',*,*,#642,.T.);
#1739 = ORIENTED_EDGE('',*,*,#1719,.T.);
#1740 = ( GEOMETRIC_REPRESENTATION_CONTEXT(3) 
GLOBAL_UNCERTAINTY_ASSIGNED_CONTEXT((#1744)) 
GLOBAL_UNIT_ASSIGNED_CONTEXT((#1741,#1742,#1743)) REPRESENTATION_CONTEXT
('Context #1','3D Context with UNIT and UNCERTAINTY') );
#1741 = ( LENGTH_UNIT() NAMED_UNIT(*) SI_UNIT(.MILLI.,.METRE.) );
#1742 = ( NAMED_UNIT(*) PLANE_ANGLE_UNIT() SI_UNIT($,.RADIAN.) );
#1743 = ( NAMED_UNIT(*) SI_UNIT($,.STERADIAN.) SOLID_ANGLE_UNIT() );
#1744 = UNCERTAINTY_MEASURE_WITH_UNIT(LENGTH_MEASURE(5.E-05),#1741,
  'distance_accuracy_value','confusion accuracy');
#1745 = PRODUCT_RELATED_PRODUCT_CATEGORY('part',$,(#7));
#1746 = MECHANICAL_DESIGN_GEOMETRIC_PRESENTATION_REPRESENTATION('',(
    #1747),#1740);
#1747 = STYLED_ITEM('color',(#1748),#15);
#1748 = PRESENTATION_STYLE_ASSIGNMENT((#1749,#1755));
#1749 = SURFACE_STYLE_USAGE(.BOTH.,#1750);
#1750 = SURFACE_SIDE_STYLE('',(#1751));
#1751 = SURFACE_STYLE_FILL_AREA(#1752);
#1752 = FILL_AREA_STYLE('',(#1753));
#1753 = FILL_AREA_STYLE_COLOUR('',#1754);
#1754 = COLOUR_RGB('',0.647058850868,0.647058850868,0.647058850868);
#1755 = CURVE_STYLE('',#1756,POSITIVE_LENGTH_MEASURE(0.1),#1757);
#1756 = DRAUGHTING_PRE_DEFINED_CURVE_FONT('continuous');
#1757 = COLOUR_RGB('',9.803921802644E-02,9.803921802644E-02,
  9.803921802644E-02);
ENDSEC;
END-ISO-10303-21;
